<svg xmlns="http://www.w3.org/2000/svg" viewBox="0 0 175 29" class="sc-f95bdfea-0 HIBgE"><path fill-rule="evenodd" clip-rule="evenodd" d="M28.445 28.318h7.793V.8h-7.793v27.518ZM62.252 15.856c-.199-3.303-.199-4.56-.238-5.62V.8h7.914v27.518h-6.682l-11.611-14.82.118 6.014v8.806h-7.952V.8h6.68l11.771 15.056ZM77.719 28.318h7.792V.8H77.72v27.518ZM99.19 7.208h-8.178V.8h24.294v6.408h-8.218v21.11H99.19V7.208ZM142.939 28.289h-22.353V.631h21.794v6.56h-14.01v3.95h13.212v6.361H128.37v4.189h14.569v6.598ZM174.129 24.692C170.976 27.774 167.144 29 162.912 29c-10.977 0-15.247-6.837-15.287-14.342C147.585 7.545 152.415 0 162.912 0c4.032 0 7.664 1.38 10.817 4.424l-4.869 4.742c-1.995-1.898-4.072-2.41-5.948-2.41-5.388 0-7.504 4.347-7.463 7.94.039 3.597 1.955 7.667 7.463 7.667 1.876 0 4.591-.792 6.587-2.805l4.63 5.134ZM.941 11.26v17.058h7.863V17.363h13.68v-6.102H.942ZM.941 7.395h21.544V.8H.94v6.595Z"></path></svg>