<svg xmlns="http://www.w3.org/2000/svg" viewBox="0 0 289.7 37.8"><title>mylab-logo--black</title><g id="Layer_2" data-name="Layer 2"><g id="Layer_1-2" data-name="Layer 1"><path d="M212.2.1H177.8V9.7h31.9a4.51,4.51,0,0,1,4.3,4.5H181.6a11.74,11.74,0,0,0-11.9,11.9A12.11,12.11,0,0,0,182,37.8h45.2V18.3C227.2,4.6,222.2.1,212.2.1ZM214,28.2H185.1a2.3,2.3,0,1,1,0-4.6H214Z"/><path d="M131.9,20.4V0H111.2L90.8,21.7,70.5,0,48.8.1,31.7,22.4,13.3.1H0V37.7H13.3V18.5L26.7,35.2h9.9L48.8,18.5V37.6H62V7.8L84.4,31.6v6.1H97.6V31.3l21-22.4V23.1a14.62,14.62,0,0,0,14.6,14.6h34.1V28.1H139.6A7.7,7.7,0,0,1,131.9,20.4Z"/><path d="M285.3,16.4a11.44,11.44,0,0,0,1.3-5.2c0-5.8-4.4-11.1-11.9-11.1h-43V37.7h46a12,12,0,0,0,12-12A11.87,11.87,0,0,0,285.3,16.4ZM244.9,9.6l25.8.1a2.3,2.3,0,1,1,0,4.6H244.9V9.6Zm29.2,18.5H244.9V23.5h29.2a2.3,2.3,0,0,1,0,4.6Z"/></g></g></svg>