<svg viewBox="0 0 478 111" xmlns="http://www.w3.org/2000/svg">
    <path class="cls-1" d="M59,64.31l-0.9-5.36-16.28-3.8,0.63,2.68c-3.18.86-6.35,2.24-9.28-1.17-0.6-.7-2.45-0.34-3.93-0.48-1.06,3-1.73,6.15-6.07,6.77l-0.42-6.08c-1.87-.85-3.53-0.81-4.83,1.83-0.7,1.44-2.2,2.49-3.43,3.8-3.35-3.65-1-5.82,1.61-7.94l-0.66-.94L7,53.33v-2c2.38-2.51,5-3,8-1.09a12.65,12.65,0,0,0,2.82.9l-5-5.26c3.92-2,5.68-.11,7.48,2.06,4,4.86,8.39,5.75,14,2.75a80.24,80.24,0,0,0,6.81-4.57l-0.37-.69L35.4,47.5l0.94-3.85-3.51-3.25c5.55-.57,5.74-0.72,7-5.12l4.2,2c3.09,0.13,4.38-1,4.26-3.88-0.11-2.52-2.21-4.85-4-3.87-4.59,2.52-5.16-1.29-6.76-3.49l5.65-8.88L43,17.37l9.8,3L53,19.76l-7.61-3.49L48,4.33h1l2.15,6.07-2.05,2.46,4.83,2V10.6l4.85-3.16,2.28,4.85L56.54,16.1l5.14,2.29L62.3,15l5.88-1.42L62.47,23.83l-5.12-2.38c1.66,3,3.36,2.6,5,2.28-0.07,1.57-.19,1.83-1.74,3.56,2.17,2.29,3.07,4.92.94,8.06l-2.36-1.78,0.62,7.64-3-1.38-1.71,6.72a14.47,14.47,0,0,0,9.49,6.88,6.31,6.31,0,0,1,3.11,1.47c2.63,2.69,5.33,2.29,8.06.43a7.54,7.54,0,0,0,3.47-8.17c-0.21-1.1-.56-2.18-0.85-3.28,2.4-1.28,3,.2,3.49,2a11.39,11.39,0,0,1-6,13c-1.33.65-2.79,1-4.92,1.8L75.3,72.91l7.19-.82,0.74,6.27L88.09,79c-2.84,7-2.84,7-7.56,8.17,1.62,3.46,2.39,6.91-1.65,10-1-2.11-4.29-2.69-1.91-6.28-4,.37-6,0.94-5.22,4.91,0.56,2.84-1.69,4.25-4.8,3.62l-1-5.13c1.76-.49,1.92-1.92.76-2.67-0.76-.49-2.37.32-4.48,0.71l3.82,2c-2.33,2.2-.92,3.63,1,5-9.35,3.84-18.52,2.56-27.55-1.07-3.34-1.34-6.56-3-10.23-4.71a19.09,19.09,0,0,1-.56,2.69A10.08,10.08,0,0,1,27.29,99a2.08,2.08,0,0,1-1.7-.33,6.48,6.48,0,0,1-.19-3.12A9.17,9.17,0,0,1,27,93c-5.75-5.19-8-5.54-12.81-2-0.15-2.31-1-4.89-.21-6.66,0.69-1.46,3.41-2,5.4-3,0.22,1.52.05,2.89,0.64,3.73s1.93,1.19,3,1.75l2.83-7H15.93c2.95-7.4,7.7-3.92,11.93-3.46L21.93,71.7c4.66-2.37,7.5-1.58,9.73,2.65,1.34,2.52,2.07,5.44,6.06,4.15,4.91-1.59,6.79-4,6.41-8.58S44.5,64,48.77,62.56c2.51-.84,5.1-1.45,7.95-2.24l2.39,3.91-0.26,3.65-8.09,2.48,1.48,12.53c-3.1-.18-5.9,3.78-8.77,0-3.27,5.71-3.71,6-8.26,6.12,1.34-2.57,1.31-5.08-1.56-6.25-4.89-2-5.1,3.18-7.81,5.33l3.06,1.16a22.74,22.74,0,0,1,2-3.73,3.23,3.23,0,0,1,2.07.52,35.11,35.11,0,0,1-.39,4.49c8.44,3.69,16.37,4.81,24.57,3.44,1.62-5.91,2.08-6.21,8.14-6a8.26,8.26,0,0,0,2.47-.76l-7.62-2.77c2.24-3.16,4.44-3.46,7-2.11,1.62,0.85,3.19,1.81,4.87,2.52,2.24,0.95,4.39.68,5.62-1.61,1.15-2.13.07-4.09-1.68-5.2a27.76,27.76,0,0,0-6.38-2.71c-4.41-1.41-7.57-4-9.15-8.47A15.87,15.87,0,0,0,59,64.31ZM44.91,24.79L46,22.94a5.29,5.29,0,0,0-1.57-.73,1.32,1.32,0,0,0-.79.95A6.63,6.63,0,0,0,44.91,24.79Z" transform="translate(-7 -4.33)"></path><path class="cls-1" d="M105,115.33l0.29-2.84c1.44-.08,2.9-0.24,4.35-0.24H482.5c0.83,0,1.66.06,2.5,0.09v3H105Z" transform="translate(-7 -4.33)"></path><path class="cls-1" d="M485,45.33c-5.21,9.62-12.57,13-21.9,10-6.16-2-9.91-7.31-9.86-14,0.06-6.94,4.06-12.28,10.51-14,9.91-2.7,16.92,1,21.24,11.06v7Zm-27.32-4c0,6.83,2.91,11.47,8.1,12.8,6.33,1.62,12.1-1.34,14-7.2,2.42-7.42-.23-15.28-6-17.67a11.45,11.45,0,0,0-2.87-.78C462.87,27.4,457.71,32.42,457.68,41.29Z" transform="translate(-7 -4.33)"></path><path class="cls-1" d="M14,115.33l-0.59-2.64a22.91,22.91,0,0,1,3-.43c22.4,0,44.79,0,67.19-.05,2.38,0,4.34.08,4.37,3.13H14Z" transform="translate(-7 -4.33)"></path><path class="cls-1" d="M485,73.33h-8.15V99l-4,.21v-26h-8.49l0-1.42c6.82-1.15,13.77-.34,20.66-0.46v2Z" transform="translate(-7 -4.33)"></path><path class="cls-1" d="M61,12.38c-0.57-2.92.91-4.14,3.59-4.75,4.18-1,8.3-2.18,12.45-3.29h6c-1,1-1.76,2.62-2.93,3C73.75,9.16,67.34,10.72,61,12.38Z" transform="translate(-7 -4.33)"></path><path class="cls-1" d="M270.52,55.67L260.23,36l-0.8.09c-0.43,3.51-.71,7-1.32,10.52-0.53,3,.62,6.57-1.56,9.06l-1.86-.46L258.5,27.5l0.92-.37,11.83,21.93L283.4,27.19l1,0.22,3.21,27.74h-3.84l-1.91-18.88C277.26,42.06,274,48.58,270.52,55.67Z" transform="translate(-7 -4.33)"></path><path class="cls-1" d="M273.46,99.24L263.55,80l-0.87,0L260.5,100.3c-1.23-1.38-2.37-2.11-2.29-2.67,1.17-8.87,2.49-17.72,3.93-27.66l12.12,22.87,12-21.91,0.84,0.22L290.22,99h-3.74L284.62,80.1l-1-.35Z" transform="translate(-7 -4.33)"></path><path class="cls-1" d="M121.25,56.31c-9.4.09-15.86-5.88-16-14.76s6.28-15,15.68-15.07,15.85,5.87,15.94,14.77S130.69,56.22,121.25,56.31Zm11.35-14.7c0.08-6.5-2.65-11.08-7.6-12.72-6.24-2.07-12.51.89-14.57,6.87-2.67,7.77.43,16.12,6.76,18.16a10.86,10.86,0,0,0,1.95.39C127.27,55.34,132.49,50.41,132.6,41.61Z" transform="translate(-7 -4.33)"></path><path class="cls-1" d="M421.59,55.18l-3.89.21V27.31c3.84,0,7.77-.16,11.67.05,3,0.16,5.4,1.66,6.23,4.85a7.12,7.12,0,0,1-3.48,7.66A46.42,46.42,0,0,1,427.59,42l10.33,12.85c-3,1.3-4.76.41-6.43-2a56.32,56.32,0,0,0-9.91-11.57V55.18Zm-0.15-25.65V39.95c3.75,0.79,7,.4,9.42-2.66a4.6,4.6,0,0,0,.11-6C428.54,28.23,425.27,28.63,421.44,29.54Z" transform="translate(-7 -4.33)"></path><path class="cls-1" d="M307.72,27l20.49,21.58V27.67c2.84-.81,2.69.87,2.63,2.41-0.2,5.31-.45,10.62-0.6,15.94-0.09,3.13,0,6.27,0,10.41l-20.8-22.16a22.6,22.6,0,0,0-.69,3.64q0,7.48.17,15c0,1.74-.14,3.06-2.35,2.34V27.42Z" transform="translate(-7 -4.33)"></path><path class="cls-1" d="M421.4,85.85l10.1,12.88c-3.08,1.33-4.78.19-6.41-2.13-2.63-3.74-5.59-7.24-8.41-10.84l-1.09.52V99h-3.92V71.21c3.73,0,7.35-.15,11,0s5.75,1.86,6.42,4.54c0.81,3.25-.41,6.14-3.54,8.06C424.38,84.54,423.13,85,421.4,85.85Zm-5.91-12.32V84c3.88,0.34,7.27.14,9.37-3.33a4.57,4.57,0,0,0-.55-6C421.81,72.41,418.82,72.05,415.48,73.53Z" transform="translate(-7 -4.33)"></path><path class="cls-1" d="M155,27.59h3.68V39.93c6.12-3.53,9-10.38,15.06-13.09l0.89,1L162,39.49l13.6,15.37c-2.85,1.13-4.67.61-6.36-1.54-3.07-3.9-6.38-7.61-10.27-12.21v14H155V27.59Z" transform="translate(-7 -4.33)"></path><path class="cls-1" d="M309.42,77.51c0,7.22-.05,13.14,0,19.06,0,1.7.12,3.09-2.34,2.5V71.23l0.88-.57L327.47,91.4l1-.18c0-4,0-8,0-12,0-2.16-.26-4.33-0.12-6.47,0-.57,1.11-1.08,2.14-2v29.63Z" transform="translate(-7 -4.33)"></path><path class="cls-1" d="M202.18,27.52h3.45a5.53,5.53,0,0,1,.4,1.42c0,5.66-.33,11.33,0,17,0.35,6.06,4.77,9.14,10.74,8.07,4.14-.74,6.67-3.53,7.05-8.47,0.32-4.14.15-8.32,0.19-12.48,0-1.8,0-3.6,0-6.72,1.5,1.36,2.74,2,2.72,2.54-0.2,6.31-.17,12.68-1,18.92-0.82,5.81-6.16,8.93-12.85,8.44s-10.3-3.67-10.6-10.21C202,40,202.18,34.07,202.18,27.52Z" transform="translate(-7 -4.33)"></path><path class="cls-1" d="M72.11,42.72v5.46l-5.63,2.45c-0.1-2-.58-4.09-0.16-6A6,6,0,0,1,69.1,41c2-1,4.41-1.27,6.67-1.76a39.28,39.28,0,0,0,4.39-.74c3.9-1.33,5.61-4.79,4.25-8.22a6.85,6.85,0,0,0-9-3.92,6.39,6.39,0,0,0-3.46,8.61,6.09,6.09,0,0,1,.62,3.46c-1.11-.53-2.67-0.76-3.26-1.64a8,8,0,0,1-.53-8.51c2-4,7.33-6.12,12-4.93a9.69,9.69,0,0,1,7,9.26c0,4.4-3,8-7.76,9.11C77.65,42.22,75.16,42.34,72.11,42.72Z" transform="translate(-7 -4.33)"></path><path class="cls-1" d="M410.88,55H396.24V27.61h14.41c-3,3.35-7,.51-10.51,2.4v9.56h9.94c-0.79,3.52-3,2-4.44,2.08-1.77.13-3.56,0-5.57,0V53.44h10.79Z" transform="translate(-7 -4.33)"></path><path class="cls-1" d="M451.26,97.56h10.44v1.29c-4.66,1-9.42.3-14.51,0.36V71.65h14.21c-2.93,3.07-6.51.67-10.11,2.07v9.77h9.29c-2.53,3.51-6,1.11-9.32,2.44V97.56Z" transform="translate(-7 -4.33)"></path><path class="cls-1" d="M365.08,28.6l-1.38,3.29a20.16,20.16,0,0,0-1.84-2c-2.72-2.22-6-1.92-7.82.65s-1.11,5.33,1.87,7.19a36.35,36.35,0,0,0,4.52,2.08c4.53,2,6,3.94,5.76,7.71a8.32,8.32,0,0,1-6.87,8.11,20.45,20.45,0,0,1-7.76-.33c-2.53-.49-3-2.27-1.42-4.75a29.25,29.25,0,0,0,3.26,2.74,6.06,6.06,0,0,0,8.66-2c1.73-3,.7-5.83-2.93-7.73-1.47-.77-3.09-1.25-4.56-2-4-2-5.28-4.4-4.71-8.39,0.48-3.35,2.77-5.55,6.73-6.39A10.51,10.51,0,0,1,365.08,28.6Z" transform="translate(-7 -4.33)"></path><path class="cls-1" d="M164.9,75.39a13.86,13.86,0,0,0-2-2.13,4.93,4.93,0,0,0-7,1.15A4.6,4.6,0,0,0,157,81a32.2,32.2,0,0,0,5.31,2.68c4.29,2,5.85,4.22,5.52,7.89a8.46,8.46,0,0,1-7.11,7.9,18.69,18.69,0,0,1-7.27-.44c-2.49-.58-2.93-2.36-1.23-4.59a26.92,26.92,0,0,0,3.33,2.74,5.91,5.91,0,0,0,8.22-2.06c1.47-2.79.49-5.87-2.56-7.56-1.88-1-4-1.7-5.82-2.81A7.55,7.55,0,0,1,153,74c2.5-3.62,9.61-5,12.52-2.17,0.65,0.63.44,2.16,0.62,3.28Z" transform="translate(-7 -4.33)"></path><path class="cls-1" d="M121.72,71.51H125c0,4.5,0,8.78,0,13.06a39.57,39.57,0,0,0,.35,6c0.79,4.8,3.36,7.08,8,7.37s8-2,8.94-6.81a61,61,0,0,0,.57-9.91c0.08-3.14,0-6.28,0-10.65,1.42,1.15,2.64,1.69,2.63,2.2-0.15,6.14-.12,12.32-0.86,18.4s-5.91,9.3-12.47,8.87c-6.84-.45-10.16-3.5-10.44-10.19C121.53,83.86,121.72,77.89,121.72,71.51Z" transform="translate(-7 -4.33)"></path><path class="cls-1" d="M234.18,50.66a28,28,0,0,0,4.57,3.18,5.78,5.78,0,0,0,7.57-2.93c1.33-2.82.46-5.3-2.64-7.07-1.44-.82-3-1.34-4.53-2.06-4.48-2.17-6-4.94-5.18-9.07,0.76-3.62,4.22-6.27,8.6-6.16,2.06,0.05,4.11.83,6.58,1.37l-1.27,3.82A23.46,23.46,0,0,0,244.81,29a5.16,5.16,0,0,0-6.68,1.45,4.52,4.52,0,0,0,1,6.62,29.73,29.73,0,0,0,5.32,2.67c4.77,2.17,6.17,4.12,5.78,8.18A8.37,8.37,0,0,1,243,55.75a20.74,20.74,0,0,1-7.76-.63C232.8,54.58,232.86,52.75,234.18,50.66Z" transform="translate(-7 -4.33)"></path><path class="cls-1" d="M348.16,94.61c1.86,1.18,3.4,2.53,5.19,3.19a5.43,5.43,0,0,0,6.65-3A5,5,0,0,0,358,88c-1.54-1-3.29-1.56-4.93-2.36-4.51-2.23-6.14-5.43-4.91-9.61,1-3.44,4.86-5.91,9.06-5.52A34.24,34.24,0,0,1,362.7,72l-1.12,3.68a22.87,22.87,0,0,0-2.74-2.57,5,5,0,0,0-6.69,1.15,4.62,4.62,0,0,0,.79,6.66,23.67,23.67,0,0,0,4.82,2.53c5.24,2.38,7,5.1,6,9.44a9.61,9.61,0,0,1-10.6,7.11,15.72,15.72,0,0,1-4.28-1.2C346.69,97.85,347.13,96.3,348.16,94.61Z" transform="translate(-7 -4.33)"></path><path class="cls-1" d="M181,55.68V27.74h14.55c-3.12,3-6.87.64-10.6,2.1v9.93h9.73c-2.75,3.61-6.46.63-9.81,2.42V53.58h10.83l0,1.41C191,56.13,186.07,55,181,55.68Z" transform="translate(-7 -4.33)"></path><path class="cls-1" d="M405.84,73.15H395.47v10l9.41,0.48,0,1.55-9.5.51v11.5h11.34c-3.07,2.39-5.49,2.6-15.11,1.85V71.64h14.16Z" transform="translate(-7 -4.33)"></path><path class="cls-1" d="M253,85.11h-9.33V97.4h10.4v1.4c-4.43,1.23-9.06.05-14,.63V71.58h14.14c-1.17,2.93-3.25,1.6-4.79,1.74-1.79.16-3.61,0-5.81,0V83.42H253Z" transform="translate(-7 -4.33)"></path><path class="cls-1" d="M382,29.74v25.4h-3.91V29.22h-8.72l0.09-1.52a142.36,142.36,0,0,1,21.23-.16l0.12,1.6Z" transform="translate(-7 -4.33)"></path><path class="cls-1" d="M203.58,72.13c3.45-1.29,17.4-1.21,20.58.9-1.27.14-2.54,0.33-3.81,0.4s-2.59,0-4.34,0V99h-3.89V73.65l-8.64-.38Z" transform="translate(-7 -4.33)"></path><path class="cls-1" d="M374.81,99.4v-26h-8.92c2.08-2.15,2.08-2.14,10.3-2.12h11.58c-2.8,3.74-6.19,1-9,2.78V98.76Z" transform="translate(-7 -4.33)"></path><path class="cls-1" d="M178.7,99V73.65l-8.75-.41c1.82-1.95,1.82-2.06,10.61-1.89,3.44,0.07,7.06-1.1,10.36.56l0,1.24-8.57.48c-0.07,5.42-.17,10.84-0.18,16.26a54.77,54.77,0,0,0,.35,6.47C182.89,99,181.63,99.62,178.7,99Z" transform="translate(-7 -4.33)"></path><path class="cls-1" d="M341.78,99h-3.57V71.52h3.57V99Z" transform="translate(-7 -4.33)"></path><path class="cls-1" d="M436.34,71.44h3.37v27.5l-3.37.34V71.44Z" transform="translate(-7 -4.33)"></path><path class="cls-1" d="M146.51,55.27h-3.38V27.65l3.38-.29V55.27Z" transform="translate(-7 -4.33)"></path><path class="cls-1" d="M294.11,55.51V27.69l3.52-.42V55.09Z" transform="translate(-7 -4.33)"></path><path class="cls-1" d="M342.64,55.26h-3.39V27.67l3.39-.38v28Z" transform="translate(-7 -4.33)"></path><path class="cls-1" d="M110.79,71.51l3.06-.17a3.18,3.18,0,0,1,.54,1c0,7.63,0,15.27,0,22.9-0.06,6.23-2.44,9-9.16,9.59,5.52-2.62,5.57-6.94,5.6-11.21C110.82,86.38,110.79,79.1,110.79,71.51Z" transform="translate(-7 -4.33)"></path><path class="cls-1" d="M447.27,55.29h-3.59V27.69l3.59-.29V55.29Z" transform="translate(-7 -4.33)"></path><path class="cls-1" d="M195.48,71.46h3.45V99h-3.45V71.46Z" transform="translate(-7 -4.33)"></path><path class="cls-1" d="M299.46,71.38V98.76l-3.43.62V71.56Z" transform="translate(-7 -4.33)"></path><path class="cls-1" d="M228.94,71.47h3.43V99h-3.43V71.47Z" transform="translate(-7 -4.33)"></path><path class="cls-1" d="M476,22c-1.3,1-2.07,1.94-2.92,2-0.62.06-1.34-1.09-2-1.69,0.71-.72,1.31-1.76,2.17-2C473.78,20.12,474.69,21.13,476,22Z" transform="translate(-7 -4.33)"></path><path class="cls-1" d="M464.95,19.38c0.9,1.25,1.86,2,1.92,2.85a2.77,2.77,0,0,1-1.69,1.8,3.85,3.85,0,0,1-2.11-2C462.91,21.56,464,20.66,464.95,19.38Z" transform="translate(-7 -4.33)"></path><path class="cls-1" d="M21.06,35.34Q20.5,30.56,20,25.79c0.87-2,5.22-1.1,4.26-5.06-2,1.19-4,2-5.45,3.34-2.4,2.3-4,1.36-5.93-.74,3-5,7.67-6.54,13.11-7.31,1.29,3.47,2.82,6.54,1.59,10.48-0.64,2,.23,4.55.42,6.84l0.16-.09c-2.41.68-4.28,3.26-7.22,2Z" transform="translate(-7 -4.33)"></path><path class="cls-1" d="M43.2,17.19L32.56,20.87a16.24,16.24,0,0,1,1.46,3,4.1,4.1,0,0,1-.16,2.66,2.1,2.1,0,0,1-2,.64,3.14,3.14,0,0,1-1.68-2.06A22.06,22.06,0,0,0,27,13.41c-0.35-.62.75-2.07,1.18-3.13,0.91,0.73,2.13,1.3,2.64,2.25s0.19,2.17.27,3.71l12.75-3.16L43,17.37Z" transform="translate(-7 -4.33)"></path><path class="cls-1" d="M28,33.34c3.92,3.3,4.16,8.08,5.8,12.31l-0.95.9L19.44,41.41l1.61-6.06-0.16-.08c3.35,2.11,3.35,2.11,7.22-2Z" transform="translate(-7 -4.33)"></path><path class="cls-1" d="M44,37.42a13.36,13.36,0,0,0,.14-1.85A23,23,0,0,0,43.62,33L40,35.41a8,8,0,0,0-1.9.33c-1.93.84-3.61,0.61-4.81-1.15-0.92-1.35-.21-2.4,3.39-4.85l-2.15,4.69c2.62-.65,4.18-1.15,5.78-1.39a33.49,33.49,0,0,1,4.15-.13Z" transform="translate(-7 -4.33)"></path><path class="cls-1" d="M484.5,114.83H112c-1.67,0-3.33-.16-5-0.24" transform="translate(-7 -4.33)"></path><path class="cls-1" d="M13.5,113.33c1.83,0.5,3.66,1.43,5.5,1.43,22,0.1,44,.07,66,0.05a4.37,4.37,0,0,0,1-.24" transform="translate(-7 -4.33)"></path><path class="cls-1" d="M70,89.83c-1.5,0-3,0-4.5,0-4.77-.15-5.21.35-4.51,5a18.4,18.4,0,0,1,0,2.37c-10.83,2-20.87-.43-30.5-5.37" transform="translate(-7 -4.33)"></path><path class="cls-1" d="M307.5,70.83c1.73,6.18,7.51,9.19,11.06,14,2.17,2.91,5,5.31,7.41,8.07,1.64,1.88,3,4,4.53,6" transform="translate(-7 -4.33)"></path><path class="cls-1" d="M447.5,28.33l-2.25,1.12V53.29l2.25,1" transform="translate(-7 -4.33)"></path><path class="cls-1" d="M180.5,73.33c0,7,0,14,0,21a14.3,14.3,0,0,0,1,3.5" transform="translate(-7 -4.33)"></path><path class="cls-1" d="M438,73.33v24" transform="translate(-7 -4.33)"></path><path class="cls-1" d="M340,73.33v24" transform="translate(-7 -4.33)"></path><path class="cls-1" d="M298,73.58V97.33" transform="translate(-7 -4.33)"></path><path class="cls-1" d="M231,73.58V97.33" transform="translate(-7 -4.33)"></path><path class="cls-1" d="M145,29.33v24" transform="translate(-7 -4.33)"></path><path class="cls-1" d="M197,73.33v24" transform="translate(-7 -4.33)"></path><path class="cls-1" d="M296,29.33v24" transform="translate(-7 -4.33)"></path><path class="cls-1" d="M341,29.33v24" transform="translate(-7 -4.33)"></path><path class="cls-1" d="M214,73.83v23.5" transform="translate(-7 -4.33)"></path><path class="cls-1" d="M377,73.83v23.5" transform="translate(-7 -4.33)"></path><path class="cls-1" d="M475,73.83v23.5" transform="translate(-7 -4.33)"></path><path class="cls-1" d="M380,29.83v23.5" transform="translate(-7 -4.33)"></path><path class="cls-1" d="M259,27.83c1.55,7.43,6.14,13.44,9.64,19.92a13.91,13.91,0,0,1,1.86,7.08" transform="translate(-7 -4.33)"></path><path class="cls-1" d="M283,33.83c0.67,5.5,1.4,11,2,16.5,0.19,1.86,0,3.72,2.54,4" transform="translate(-7 -4.33)"></path><path class="cls-1" d="M309,76.83a14.73,14.73,0,0,0-1,3.5c-0.11,5-.06,10,0,15,0,1.22-.43,2.71,1.49,3" transform="translate(-7 -4.33)"></path><path class="cls-1" d="M329.5,28.83c-0.17,6-.28,12-0.54,18a18.33,18.33,0,0,1-1,3.75" transform="translate(-7 -4.33)"></path><path class="cls-1" d="M71.5,71.83c2.33,1.5,4.64,3,7,4.44,0.23,0.13,1-.6,1.46-0.94" transform="translate(-7 -4.33)"></path><path class="cls-1" d="M309,32.83a8.46,8.46,0,0,0-1,2.5c-0.24,6.16-.37,12.33-0.54,18.5" transform="translate(-7 -4.33)"></path><path class="cls-1" d="M420.5,41.33a6.25,6.25,0,0,1,6.58,2.95C428.9,47,432,49,433.3,51.93c1,2.25,2.93,1.82,4.2,2.91" transform="translate(-7 -4.33)"></path><path class="cls-1" d="M263,77.83c-2.87,4.27-1.58,9.41-2.94,14-0.55,1.89-.4,4-0.56,6" transform="translate(-7 -4.33)"></path><path class="cls-1" d="M286.5,70.83c-1.6,7.42,1.12,14.64,1,22a37,37,0,0,0,.47,4.5" transform="translate(-7 -4.33)"></path>
    <path class="cls-1" d="M82.5,5.33l-19.25,5" transform="translate(-7 -4.33)"></path>
    <path class="cls-1" d="M36.5,29.83l-2.64,2.63c0.85,2.3,1.62,4.12,4.69,1.95,1.48-1,3.56-1.24,6.07-2l-0.63,5" transform="translate(-7 -4.33)"></path>
    <path class="cls-1" d="M259,34.83c-0.67,3.67-1.45,7.32-2,11-0.37,2.64-.37,5.33-0.54,8" transform="translate(-7 -4.33)"></path>
    <path class="cls-1" d="M307.5,26.83c0.22,4.19,3.45,6.37,6,9,4.73,4.85,9.58,9.6,14.18,14.56,1,1.1,1.23,2.94,1.81,4.44" transform="translate(-7 -4.33)"></path>
    <path class="cls-1" d="M414.5,85.33c2.12-.11,4,0.2,5.51,2,2.11,2.55,4.94,4.72,6.3,7.6,1.22,2.58,3.28,2.87,5.19,3.91" transform="translate(-7 -4.33)"></path>
    <path class="cls-1" d="M329.5,72.83l-0.5,19" transform="translate(-7 -4.33)"></path>
    <path class="cls-1" d="M54,65.33c-7.07,1.66-7,1.66-6.54,9a17.16,17.16,0,0,1-.61,3.9c-6,1.69-6,1.69-9.35,9.6" transform="translate(-7 -4.33)"></path>
    <path class="cls-1" d="M262.5,70.83c-0.58,6.87,4.8,11.27,7.09,17,1.46,3.64,4.79,6.57,3.91,11" transform="translate(-7 -4.33)"></path>
    <path class="cls-1" d="M285,77.33c-4.08,3.26-5.18,8.43-8,12.5-1,1.48-2,3-3,4.5" transform="translate(-7 -4.33)"></path>
    <path class="cls-1" d="M284,27.83a14.85,14.85,0,0,1-3.84,7.64c-2.67,3.09-4.11,7.23-6.19,10.84a41.87,41.87,0,0,1-3,4" transform="translate(-7 -4.33)"></path>
    <path class="cls-1" d="M43.5,14.33c-3.33,2.78-7.88,2.45-11.5,4.5" transform="translate(-7 -4.33)"></path>
    <path class="cls-1" d="M157,29.33v24" transform="translate(-7 -4.33)"></path>
    <path class="cls-1" d="M30,78.83c-0.28-5.12-1.78-6.52-7.5-7" transform="translate(-7 -4.33)"></path>
    <path class="cls-1" d="M223.5,72.33c-3.33.33-6.67,0.93-10,.93s-6.67-.59-10-0.93" transform="translate(-7 -4.33)"></path>
    <path class="cls-1" d="M399,40.33c2.5,0,5-.13,7.49.07,0.87,0.07,1.67.93,2.51,1.43" transform="translate(-7 -4.33)"></path>
    <path class="cls-1" d="M386.5,72.33c-3.33.33-6.67,0.93-10,.93s-6.67-.59-10-0.93" transform="translate(-7 -4.33)"></path>
    <path class="cls-1" d="M390.5,28.33c-3.5.33-7,.93-10.5,0.93s-7-.59-10.5-0.93" transform="translate(-7 -4.33)"></path>
    <path class="cls-1" d="M484.5,72.33c-3.33.33-6.67,0.93-10,.93s-6.67-.59-10-0.93" transform="translate(-7 -4.33)"></path>
    <path class="cls-1" d="M450,84.33h10.5" transform="translate(-7 -4.33)"></path>
    <path class="cls-1" d="M24.5,18.33a13.94,13.94,0,0,0-7,3.45c-0.7.65-2,.72-3,1.05" transform="translate(-7 -4.33)"></path>
    <path class="cls-1" d="M394.51,84l10,0.59" transform="translate(-7 -4.33)"></path>
    <path class="cls-1" d="M252.5,84.33l-10,.5" transform="translate(-7 -4.33)"></path>
    <path class="cls-1" d="M190.5,72.33h-20" transform="translate(-7 -4.33)"></path><path class="cls-1" d="M36.5,53.83l-10,1.5" transform="translate(-7 -4.33)"></path>
    <path class="cls-1" d="M33.5,39.83c1.11,2.05,3.08,2.2,5,2,3.7-.45,6.88.88,10,2.54" transform="translate(-7 -4.33)"></path>
    <path class="cls-1" d="M18.5,77.83a14.55,14.55,0,0,1,9.57,1.37c3.2,1.6,6.93,2.13,10.43,3.13" transform="translate(-7 -4.33)"></path>
    <path class="cls-1" d="M15.5,46.83c3,0.91,4.92,2.68,5,6-1.92,2.08-3.34.24-5.05-.4-2.63-1-5.49-2.6-8,.43" transform="translate(-7 -4.33)"></path>
    <path class="cls-1" d="M25.5,15.83c0,0.17,0,.33,0,0.5,0.16,2.5,1.28,5.52.27,7.37A14.46,14.46,0,0,0,24,31.33" transform="translate(-7 -4.33)"></path>
    <path class="cls-1" d="M184,40.33l9.5,0.5" transform="translate(-7 -4.33)"></path>
    <path class="cls-1" d="M18.5,54.33l-4,7.5" transform="translate(-7 -4.33)"></path>
    <path class="cls-1" d="M60.5,84.83c2.33-2.31,4.66-.63,7,0s3.78,1.82,3,4.51" transform="translate(-7 -4.33)"></path>
    <path class="cls-1" d="M28.5,91.33c-3.33-1.5-6.71-2.91-10-4.56-0.8-.41-1.2-1.6-1.78-2.44" transform="translate(-7 -4.33)"></path>
    <path class="cls-1" d="M61.5,34.83c-0.25-4.41-3.55-5.54-7-6.5" transform="translate(-7 -4.33)"></path>
    <path class="cls-1" d="M31.5,87.83c-1.67,2.67-3.37,5.31-5,8-0.18.3,0.29,1,.45,1.47" transform="translate(-7 -4.33)"></path>
    <path class="cls-1" d="M88.5,78.83L83,81.33" transform="translate(-7 -4.33)"></path>
    <path class="cls-1" d="M48.5,4.83L48.23,14.93c1.08,0.49,3.23,1.35,5.25,2.45a20.32,20.32,0,0,1,3,2.46" transform="translate(-7 -4.33)"></path>
    <path class="cls-1" d="M28.5,11.83l4,13" transform="translate(-7 -4.33)"></path>
    <path class="cls-1" d="M41,35.83l1,5.5" transform="translate(-7 -4.33)"></path>
    <path class="cls-1" d="M28,33.33a8.07,8.07,0,0,1,0,2.49c-1.44,4.2.84,6.56,4,8.51" transform="translate(-7 -4.33)"></path>
    <path class="cls-1" d="M67.5,44.83l2.14,0.48L66.5,50.83" transform="translate(-7 -4.33)"></path>
    <path class="cls-1" d="M71.5,88.83l4.15-1.15c4.88,2.12,4.15,5.56,2.85,9.15" transform="translate(-7 -4.33)"></path>
    <path class="cls-1" d="M21,53.33l5.87,2.61L24,62.83" transform="translate(-7 -4.33)"></path>
    <path class="cls-1" d="M63.5,23.83L59,26.33" transform="translate(-7 -4.33)"></path>
    <path class="cls-1" d="M58,9.83l-3.5,7.5" transform="translate(-7 -4.33)"></path>
    <path class="cls-1" d="M63,14.83c1.24,2.58.33,4.41-2,5.75L57.62,18.9,54,24.33" transform="translate(-7 -4.33)"></path>
    <path class="cls-1" d="M57.5,12.33H61" transform="translate(-7 -4.33)"></path><path class="cls-1" d="M66,94.33H64.5" transform="translate(-7 -4.33)"></path>
    <path class="cls-1" d="M21,35.33a4.69,4.69,0,0,0-.47,1,1.37,1.37,0,0,0,.47.49" transform="translate(-7 -4.33)"></path>
</svg>