<svg width="215" height="28" viewBox="0 0 215 28" fill="none" xmlns="http://www.w3.org/2000/svg">
<path d="M8.74902 15.4587C7.9193 15.2331 6.37077 14.8247 4.92903 13.8162C2.91223 12.4333 1.79499 10.4207 1.68408 7.91442C1.57729 5.82519 2.22628 3.99551 3.52425 2.57432C5.39728 0.557414 8.10003 0 9.39801 0C13.0742 0 15.128 1.3829 16.9682 2.61261L17.7979 3.17002L15.165 7.61231L14.2654 7.01235C12.643 5.93156 11.5996 5.22097 9.40212 5.22097C9.07762 5.22097 7.81661 5.48053 7.16763 6.19112C6.94993 6.41239 6.69937 6.82513 6.73223 7.68465C6.7692 9.02925 7.66874 9.77814 9.97717 10.3739C10.2688 10.4462 10.4824 10.5228 10.7001 10.5994C13.1153 11.4546 14.9883 12.6163 16.2863 14.0715C17.5843 15.565 18.2703 17.3224 18.2703 19.1861C18.2703 21.0158 17.5104 22.9178 16.2535 24.3773C14.7748 26.0921 12.721 27.0665 10.4495 27.0665C9.33229 27.0665 7.82072 26.9899 6.01752 26.4325C3.74606 25.6878 1.72927 24.3815 0 22.4753L3.67623 18.8882C6.34201 21.8413 9.3364 21.8413 10.4536 21.8413C12.5485 21.8413 13.2303 19.8627 13.2303 19.1904C13.2303 17.7734 11.6777 16.4629 9.04887 15.531L8.94207 15.4927L8.74902 15.4587Z" fill="#0C6B75"/>
<path d="M24.5425 0.370117H19.4943V26.509H24.5425V0.370117Z" fill="#0C6B75"/>
<path d="M32.4494 21.3179H41.8557V26.5091H27.4013V0.374512H32.4494V21.3179Z" fill="#0C6B75"/>
<path d="M46.3 26.5474L34.8729 0.374512H40.4591L47.0517 15.2332L53.6114 0.374512H59.1976L47.8116 26.5474H46.3Z" fill="#0C6B75"/>
<path d="M72.2473 5.59959H60.282L62.5206 0.370117H72.2473V5.59959ZM58.1338 10.4546H69.9717V15.6798H55.8541L58.1338 10.4546ZM53.406 21.3178H72.1405V26.5473H51.1346L53.406 21.3178Z" fill="#0C6B75"/>
<path d="M79.5175 5.56116V26.5088H74.4694V0.335938H84.3438C88.5253 0.335938 91.9139 3.88466 91.9139 8.21632C91.9139 11.3906 90.1108 14.1181 87.4819 15.3478L92.4931 26.5514H87.1205L82.401 16.0584V10.8289H84.3479C85.7527 10.8289 86.8699 9.67155 86.8699 8.21632C86.8699 6.76109 85.7527 5.56541 84.3479 5.56541H79.5175V5.56116Z" fill="#0C6B75"/>
<path d="M100.975 0.335938C105.05 0.335938 108.365 3.77403 108.365 7.9908C108.365 9.59496 107.896 11.0545 107.067 12.2842C108.907 13.7394 110.057 16.0159 110.057 18.5561C110.057 22.9601 106.631 26.4706 102.413 26.4706H94.0869V0.335938H100.975ZM100.758 10.68C102.162 10.68 103.678 9.48433 103.678 7.65465C103.678 5.82497 102.162 4.70589 100.758 4.70589H98.5559V10.68H100.758ZM102.343 22.0283C104.035 22.0283 105.444 20.6454 105.444 18.8923C105.444 17.1392 104.035 15.718 102.343 15.718H98.6668V22.0283H102.343Z" fill="#0C6B75"/>
<path d="M131.248 16.8371C131.248 22.441 126.853 26.9556 121.48 26.9556C116.074 26.9556 111.712 22.441 111.675 16.8754V0.335938H116.719V16.8371C116.719 18.1434 117.225 19.3774 118.124 20.3092C119.024 21.2411 120.215 21.7262 121.476 21.7262C122.737 21.7262 123.891 21.2411 124.795 20.3092C125.694 19.3774 126.163 18.1817 126.199 16.8711H126.163V0.335938H131.211V16.8371H131.248Z" fill="#0C6B75"/>
<path d="M150.409 7.09298C145.505 3.80807 138.115 6.86747 138.115 13.8883C138.115 21.2411 145.936 24.1941 150.697 20.4581L153.942 24.3047C151.67 26.2493 148.754 27.445 145.579 27.445C138.37 27.445 132.496 21.356 132.496 13.8883C132.496 6.42068 138.37 0.335938 145.579 0.335938C148.606 0.335938 151.416 1.41672 153.65 3.21236L150.409 7.09298Z" fill="#0C6B75"/>
<path d="M162.695 14.5223L160.752 16.5775V26.4706H155.704V0.335938H160.752V8.77374L168.141 0.335938H174.952L166.12 10.5651L175.165 26.4706H169.148L162.695 14.5223Z" fill="#0C6B75"/>
<path d="M193.304 5.56116H181.52V10.3779H191.25V15.6031H181.52V21.2794H193.197V26.5046H176.472V0.335938H193.304V5.56116Z" fill="#0C6B75"/>
<path d="M215 0.335938V5.56541H208.009V26.5131H202.961V5.56116H195.933V0.335938H215Z" fill="#0C6B75"/>
</svg>
