<?xml version="1.0" encoding="UTF-8" standalone="no"?>
<svg
   xmlns:dc="http://purl.org/dc/elements/1.1/"
   xmlns:cc="http://creativecommons.org/ns#"
   xmlns:rdf="http://www.w3.org/1999/02/22-rdf-syntax-ns#"
   xmlns:svg="http://www.w3.org/2000/svg"
   xmlns="http://www.w3.org/2000/svg"
   xmlns:xlink="http://www.w3.org/1999/xlink"
   version="1.1"
   id="svg2"
   viewBox="0 0 190.66718 47.933341"
   height="13.527854mm"
   width="53.810516mm">
  <defs
     id="defs4">
    <linearGradient
       id="linearGradient4148">
      <stop
         id="stop4150"
         offset="0"
         style="stop-color:#000000;stop-opacity:1;" />
      <stop
         id="stop4152"
         offset="1"
         style="stop-color:#000000;stop-opacity:0;" />
    </linearGradient>
    <linearGradient
       id="linearGradient4140">
      <stop
         id="stop4142"
         offset="0"
         style="stop-color:#000000;stop-opacity:1;" />
      <stop
         id="stop4144"
         offset="1"
         style="stop-color:#000000;stop-opacity:0;" />
    </linearGradient>
    <linearGradient
       gradientUnits="userSpaceOnUse"
       y2="390.80832"
       x2="345.36761"
       y1="390.80832"
       x1="231.40276"
       id="linearGradient4146"
       xlink:href="#linearGradient4140" />
    <linearGradient
       gradientUnits="userSpaceOnUse"
       y2="390.80832"
       x2="345.36761"
       y1="390.80832"
       x1="231.40276"
       id="linearGradient4154"
       xlink:href="#linearGradient4148" />
  </defs>
  <metadata
     id="metadata7">
    <rdf:RDF>
      <cc:Work
         rdf:about="">
        <dc:format>image/svg+xml</dc:format>
        <dc:type
           rdf:resource="http://purl.org/dc/dcmitype/StillImage" />
        <dc:title></dc:title>
      </cc:Work>
    </rdf:RDF>
  </metadata>
  <g
     transform="translate(-230.59156,-358.97264)"
     id="layer1">
    <g
       id="text4136"
       style="font-style:normal;font-weight:normal;font-size:40px;line-height:125%;font-family:sans-serif;letter-spacing:0px;word-spacing:0px;fill:url(#linearGradient4146);fill-opacity:1;stroke:url(#linearGradient4154);stroke-width:2;stroke-linecap:butt;stroke-linejoin:miter;stroke-miterlimit:4;stroke-dasharray:none;stroke-opacity:1">
      <path
         id="path4166"
         style="font-style:normal;font-variant:normal;font-weight:bold;font-stretch:normal;font-size:75px;font-family:'Sitka Banner';-inkscape-font-specification:'Sitka Banner Bold';fill:#ffffff;fill-opacity:1;stroke:#5798e8;stroke-width:2;stroke-miterlimit:4;stroke-dasharray:none;stroke-opacity:1"
         d="m 241.29156,403.90598 4.9,-1.23334 q 0.73333,-0.16666 1.13333,-0.7 0.43333,-0.53333 0.43333,-1.26666 l 0,-37.06667 -9.76666,0 q -0.66667,0 -0.96667,0.33333 -0.3,0.33334 -0.46667,0.83334 l -2.73333,7.36666 -2.23333,0 0,-12.2 41.9,0 0,12.2 -2.23334,0 -2.73333,-7.36666 q -0.16667,-0.5 -0.46667,-0.83334 -0.26666,-0.33333 -0.9,-0.33333 l -9.93333,0 0,37.06667 q 0,0.76666 0.46667,1.3 0.5,0.5 1.13333,0.66666 l 4.9,1.23334 0,2 -22.43333,0 0,-2 z" />
      <path
         id="path4168"
         style="font-style:normal;font-variant:normal;font-weight:bold;font-stretch:normal;font-size:75px;font-family:'Sitka Banner';-inkscape-font-specification:'Sitka Banner Bold';fill:#ffffff;fill-opacity:1;stroke:#5798e8;stroke-width:2;stroke-miterlimit:4;stroke-dasharray:none;stroke-opacity:1"
         d="m 275.49742,403.87264 4.23333,-1.23333 q 0.66667,-0.2 1.1,-0.7 0.46667,-0.53333 0.46667,-1.26667 l 0,-35.46666 q 0,-0.76667 -0.46667,-1.26667 -0.43333,-0.53333 -1.1,-0.73333 l -4.23333,-1.2 0,-2.03334 21.06666,0 0,2.03334 -4.2,1.2 q -0.66666,0.2 -1.13333,0.73333 -0.46667,0.53333 -0.46667,1.26667 l 0,14.93333 18.86667,0 0,-14.93333 q 0,-0.76667 -0.46667,-1.26667 -0.43333,-0.53333 -1.1,-0.73333 l -4.23333,-1.2 0,-2.03334 21.06667,0 0,2.03334 -4.23334,1.2 q -0.66666,0.16666 -1.13333,0.73333 -0.43333,0.53333 -0.43333,1.26667 l 0,35.46666 q 0,0.76667 0.43333,1.26667 0.46667,0.5 1.13333,0.7 l 4.23334,1.23333 0,2.03334 -21.06667,0 0,-2.03334 4.23333,-1.23333 q 0.66667,-0.2 1.1,-0.7 0.46667,-0.53333 0.46667,-1.26667 l 0,-16.8 -18.86667,0 0,16.8 q 0,0.76667 0.46667,1.26667 0.46667,0.5 1.13333,0.7 l 4.2,1.23333 0,2.03334 -21.06666,0 0,-2.03334 z" />
      <path
         id="path4170"
         style="font-style:normal;font-variant:normal;font-weight:bold;font-stretch:normal;font-size:75px;font-family:'Sitka Banner';-inkscape-font-specification:'Sitka Banner Bold';fill:#ffffff;fill-opacity:1;stroke:#5798e8;stroke-width:2;stroke-miterlimit:4;stroke-dasharray:none;stroke-opacity:1"
         d="m 336.65289,403.90598 4.9,-1.23334 q 0.73333,-0.16666 1.13333,-0.7 0.43333,-0.53333 0.43333,-1.26666 l 0,-37.06667 -9.76666,0 q -0.66667,0 -0.96667,0.33333 -0.3,0.33334 -0.46667,0.83334 l -2.73333,7.36666 -2.23333,0 0,-12.2 41.9,0 0,12.2 -2.23334,0 -2.73333,-7.36666 q -0.16667,-0.5 -0.46667,-0.83334 -0.26666,-0.33333 -0.9,-0.33333 l -9.93333,0 0,37.06667 q 0,0.76666 0.46667,1.3 0.5,0.5 1.13333,0.66666 l 4.9,1.23334 0,2 -22.43333,0 0,-2 z" />
      <path
         id="path4172"
         style="font-style:normal;font-variant:normal;font-weight:bold;font-stretch:normal;font-size:75px;font-family:'Sitka Banner';-inkscape-font-specification:'Sitka Banner Bold';fill:#ffffff;fill-opacity:1;stroke:#5798e8;stroke-width:2;stroke-miterlimit:4;stroke-dasharray:none;stroke-opacity:1"
         d="m 370.85875,403.87264 4.23333,-1.23333 q 0.66667,-0.2 1.1,-0.7 0.46667,-0.53333 0.46667,-1.26667 l 0,-35.46666 q 0,-0.76667 -0.46667,-1.26667 -0.43333,-0.53333 -1.1,-0.73333 l -4.23333,-1.2 0,-2.03334 21.06666,0 0,2.03334 -4.2,1.2 q -0.66666,0.2 -1.13333,0.73333 -0.46667,0.53333 -0.46667,1.26667 l 0,14.93333 18.86667,0 0,-14.93333 q 0,-0.76667 -0.46667,-1.26667 -0.43333,-0.53333 -1.1,-0.73333 l -4.23333,-1.2 0,-2.03334 21.06667,0 0,2.03334 -4.23334,1.2 q -0.66666,0.16666 -1.13333,0.73333 -0.43333,0.53333 -0.43333,1.26667 l 0,35.46666 q 0,0.76667 0.43333,1.26667 0.46667,0.5 1.13333,0.7 l 4.23334,1.23333 0,2.03334 -21.06667,0 0,-2.03334 4.23333,-1.23333 q 0.66667,-0.2 1.1,-0.7 0.46667,-0.53333 0.46667,-1.26667 l 0,-16.8 -18.86667,0 0,16.8 q 0,0.76667 0.46667,1.26667 0.46667,0.5 1.13333,0.7 l 4.2,1.23333 0,2.03334 -21.06666,0 0,-2.03334 z" />
    </g>
  </g>
</svg>
