<svg aria-hidden="true" version="1.1" xmlns="http://www.w3.org/2000/svg" xmlns:xlink="http://www.w3.org/1999/xlink" x="0px" y="0px" viewBox="0 0 170.08 121.89" enable-background="new 0 0 170.08 121.89" xml:space="preserve" fill="#002855">
	<title>Kansalliskirjasto Nationalbiblioteket</title>
    <path d="M0.86,71.78c0.4,0,1.14,0,1.67,0h1.61c0.28,0,0.47,0.06,0.47,0.2s-0.24,0.24-0.49,0.29c-0.58,0.13-0.77,0.28-0.8,1
		s-0.05,3.26,0,3.6c0,0.07,0,0.12,0.12,0.12s0.23-0.12,0.25-0.12c0.54-0.42,3.11-3,3.68-3.65c0.44-0.47,0.39-0.74-0.2-0.9
		c-0.22-0.06-0.38-0.13-0.38-0.27s0.16-0.2,0.41-0.2h0.66c0.53,0,2.06-0.08,2.52-0.08c0.29,0,0.44,0.06,0.44,0.2s-0.2,0.23-0.49,0.3
		c-0.903,0.227-1.733,0.681-2.41,1.32c-1.063,0.892-2.065,1.854-3,2.88c0,0.1-0.05,0.13,0,0.17c0.37,0.5,3.21,3.51,4.43,4.78
		c0.43,0.515,1.043,0.845,1.71,0.92c0.18,0,0.35,0.17,0.35,0.23s-0.27,0.26-0.45,0.26c-0.44,0-2.06-0.14-2.51-0.14H7.23
		c-0.17,0.022-0.325-0.097-0.348-0.267C6.881,82.415,6.88,82.408,6.88,82.4c0-0.08,0.06-0.17,0.72-0.32
		c0.062-0.025,0.091-0.095,0.067-0.156c-0.002-0.005-0.004-0.009-0.007-0.014c-0.48-0.68-2.62-3-3.48-3.92
		c-0.45-0.49-0.6-0.68-0.73-0.68s-0.07,0.17-0.09,0.35c0,0.55,0,3,0,3.64c0,0.44,0.21,0.7,1,0.88c0.3,0.09,0.4,0.19,0.4,0.31
		s-0.19,0.23-0.45,0.23s-1.54,0-2.06,0s-1.16,0-1.69,0c-0.2,0-0.4-0.1-0.4-0.22s0.11-0.22,0.48-0.3c0.82-0.17,1.12-0.41,1.16-1.41
		c0-0.59,0-2.14,0-4c0-2.71,0-3-0.07-3.56s-0.24-0.81-0.89-1c-0.4-0.12-0.45-0.22-0.45-0.3S0.61,71.78,0.86,71.78z"></path>
    <path d="M17.78,71.95c0.15,0.45,0.43,1.23,0.73,2.06c0.89,2.5,2.13,5.8,2.41,6.53c0.56,1.37,0.84,1.51,1.56,1.71
		c0.27,0.07,0.42,0.15,0.42,0.27s-0.14,0.24-0.55,0.24s-1.44-0.09-2.13-0.09s-0.85,0-1.29,0s-0.52-0.12-0.52-0.22s0.1-0.22,0.42-0.27
		c0.77-0.16,0.72-0.5,0.67-0.83c-0.242-0.956-0.55-1.895-0.92-2.81c0-0.07-0.1-0.19-0.52-0.19c-1.1,0-2.42,0-2.76,0.07
		c-0.06,0-0.15,0.1-0.18,0.15c-0.402,0.908-0.691,1.862-0.86,2.84c0,0.22,0.1,0.51,0.84,0.73c0.29,0.09,0.45,0.19,0.45,0.32
		s-0.25,0.22-0.48,0.22s-0.71,0-1.32,0s-1.48,0.09-1.73,0.09s-0.4-0.09-0.4-0.19s0.1-0.25,0.39-0.34c0.83-0.27,1-0.35,1.52-1.44
		c0.4-0.86,2.27-5.92,3-7.61c0.08-0.22,0.11-0.32,0.15-0.42c0.027-0.094,0.064-0.184,0.11-0.27c0.12-0.19,0.36-0.54,0.47-0.73
		s0.2-0.22,0.29-0.22S17.66,71.59,17.78,71.95z M18.21,77.48c-0.26-0.83-1.1-3.28-1.27-3.59c-0.05-0.1-0.1-0.1-0.15,0
		c-0.3,0.81-1.15,3.13-1.29,3.64c-0.006,0.055,0.035,0.104,0.089,0.109c0.003,0,0.007,0.001,0.011,0.001c0.66,0,2,0,2.58,0
		C18.2,77.63,18.23,77.55,18.21,77.48z"></path>
    <path d="M24.48,71.78c0.38,0,1.3,0,2.16,0c0.14,0.035,0.265,0.112,0.36,0.22c0.25,0.3,0.67,0.83,1.33,1.67s4.36,4.89,5.43,6.08
		c0.1,0.1,0.17-0.07,0.17-0.12c0.08-0.53,0-2.37,0-4.6c0-0.58,0-1.2-0.08-1.71c0-0.36-0.15-0.76-1-1c-0.34-0.1-0.47-0.22-0.47-0.37
		s0.22-0.17,0.45-0.17h1.37c0.64,0,1.21-0.07,1.64-0.07s0.39,0.07,0.39,0.19s-0.1,0.27-0.41,0.34c-0.73,0.2-1,0.39-1,1.25
		c0,0.59-0.18,4.14-0.18,6.73c0,0.71,0.11,2,0.11,2.33s-0.11,0.36-0.25,0.36s-0.62-0.37-0.78-0.58c-0.29-0.37-0.61-0.79-1.06-1.35
		c-1.57-1.89-4.42-5.12-5.92-6.93c-0.07-0.09-0.2,0-0.2,0c0,0.46-0.07,0.93-0.07,2.25c0,1.69-0.07,4,0,4.6s0.24,1,1.06,1.24
		c0.33,0.08,0.41,0.2,0.41,0.3s-0.21,0.24-0.53,0.24c-0.49,0-1.12-0.09-1.73-0.09c-0.36,0-0.9,0-1.18,0s-0.44,0-0.44-0.19
		s0.17-0.25,0.34-0.3c0.78-0.26,1.12-0.33,1.18-1.59c0.09-1.48,0.32-5.37,0.32-6.74c0-0.62-0.08-0.79-0.13-0.84
		c-0.321-0.447-0.822-0.732-1.37-0.78c-0.19-0.05-0.37-0.15-0.37-0.27S24.11,71.78,24.48,71.78z"></path>
    <path d="M43.37,71.83c0.1,0,0.2,0.29,0.22,0.34c0,0.29,0.16,1.33,0.16,1.4c0,0.29,0,0.44-0.13,0.44
		c-0.197-0.023-0.362-0.16-0.42-0.35c-0.162-0.466-0.437-0.885-0.8-1.22c-0.347-0.274-0.778-0.419-1.22-0.41
		c-1.027-0.014-1.871,0.807-1.885,1.835c-0.001,0.055,0.001,0.11,0.005,0.165c0,1.15,0.82,1.67,2.31,2.67s2.34,1.88,2.34,3.3
		c-0.046,0.981-0.569,1.877-1.4,2.4c-0.695,0.397-1.48,0.607-2.28,0.61c-0.767-0.008-1.527-0.157-2.24-0.44
		c-0.176-0.136-0.314-0.315-0.4-0.52c-0.113-0.545-0.196-1.096-0.25-1.65c0-0.08,0.17-0.32,0.23-0.32s0.4,0.43,0.64,1
		c0.462,0.796,1.309,1.29,2.23,1.3c1.054,0.051,1.949-0.762,2-1.816c0.003-0.061,0.003-0.123,0-0.184c0-0.72-0.33-1.47-2-2.57
		c-1.49-1-2.47-1.94-2.47-3.4c0.003-0.799,0.34-1.561,0.93-2.1c0.707-0.573,1.602-0.861,2.51-0.81
		C42.098,71.556,42.74,71.666,43.37,71.83z"></path>
    <path d="M51.07,71.95c0.15,0.45,0.43,1.23,0.73,2.06c0.89,2.5,2.13,5.8,2.41,6.53c0.55,1.37,0.84,1.51,1.56,1.71
		c0.27,0.07,0.42,0.15,0.42,0.27s-0.14,0.24-0.56,0.24s-1.43-0.09-2.12-0.09s-0.85,0-1.29,0s-0.52-0.12-0.52-0.22s0.1-0.22,0.42-0.27
		c0.77-0.16,0.72-0.5,0.67-0.83c-0.252-0.954-0.559-1.892-0.92-2.81c0-0.07-0.1-0.19-0.52-0.19c-1.1,0-2.43,0-2.76,0.07
		c-0.07,0-0.15,0.1-0.18,0.15c-0.402,0.908-0.691,1.862-0.86,2.84c0,0.22,0.1,0.51,0.84,0.73c0.28,0.09,0.45,0.19,0.45,0.32
		s-0.25,0.22-0.48,0.22s-0.71,0-1.33,0s-1.47,0.09-1.72,0.09s-0.4-0.09-0.4-0.19s0.1-0.25,0.38-0.34c0.84-0.27,1.06-0.35,1.53-1.44
		c0.4-0.86,2.27-5.92,3-7.61c0.09-0.22,0.12-0.32,0.16-0.42c0.027-0.094,0.064-0.184,0.11-0.27l0.47-0.73
		c0.12-0.15,0.2-0.22,0.29-0.22S50.95,71.59,51.07,71.95z M51.48,77.48c-0.27-0.83-1.1-3.28-1.27-3.59c0-0.1-0.1-0.1-0.15,0
		c-0.3,0.81-1.16,3.13-1.29,3.64c0,0.06,0,0.11,0.1,0.11c0.65,0,2,0,2.58,0C51.48,77.63,51.48,77.55,51.48,77.48z"></path>
    <path d="M58.2,71.8c0.45,0,0.85,0,1.34,0c0.65,0,1.79,0,2.19,0s0.43,0.07,0.43,0.18s-0.13,0.24-0.37,0.29
		c-1,0.22-1.07,0.43-1.1,0.66c-0.1,0.8-0.12,2.51-0.12,5c0,1.28,0,2.86,0.12,3.42c0.089,0.292,0.306,0.528,0.59,0.64
		c0.51,0.07,1.025,0.097,1.54,0.08c0.4,0.024,0.8,0.024,1.2,0c0.238-0.016,0.46-0.123,0.62-0.3c0.381-0.354,0.717-0.754,1-1.19
		c0.18-0.27,0.33-0.35,0.41-0.35s0.14,0.18,0.07,0.46c-0.198,0.611-0.365,1.232-0.5,1.86c0,0.16-0.35,0.28-0.42,0.28
		c-0.07,0-1.71-0.1-5.12-0.1c-1.07,0-1.92,0.09-2.22,0.09s-0.49,0-0.49-0.19s0.13-0.27,0.4-0.32c0.92-0.17,1.14-0.49,1.22-1.17
		c0-0.42,0.09-2.92,0.09-5.36c0-0.88,0-1.95,0-2.5s-0.1-0.73-0.89-0.9c-0.33-0.07-0.46-0.19-0.46-0.3S57.85,71.8,58.2,71.8z"></path>
    <path d="M67.85,71.8c0.46,0,0.86,0,1.34,0c0.66,0,1.79,0,2.19,0c0.4,0,0.44,0.07,0.44,0.18s-0.13,0.24-0.37,0.29
		c-1,0.22-1.07,0.43-1.1,0.66c-0.1,0.8-0.12,2.51-0.12,5c0,1.28,0,2.86,0.12,3.42c0.094,0.286,0.305,0.519,0.58,0.64
		c0.51,0.07,1.025,0.097,1.54,0.08c0.403,0.024,0.807,0.024,1.21,0c0.238-0.016,0.46-0.123,0.62-0.3c0.384-0.352,0.72-0.752,1-1.19
		c0.19-0.27,0.34-0.35,0.42-0.35s0.14,0.18,0.07,0.46c-0.207,0.608-0.374,1.23-0.5,1.86c0,0.16-0.35,0.28-0.42,0.28
		c-0.07,0-1.71-0.1-5.12-0.1c-1.07,0-1.93,0.09-2.23,0.09s-0.48,0-0.48-0.19s0.13-0.27,0.4-0.32c0.92-0.17,1.14-0.49,1.22-1.17
		c0-0.42,0.08-2.92,0.08-5.36c0-0.88,0-1.95,0-2.5s-0.1-0.73-0.89-0.9c-0.33-0.07-0.47-0.19-0.47-0.3S67.48,71.8,67.85,71.8z"></path>
    <path d="M78.58,73.48c0-0.79,0-1.05-0.95-1.22c-0.39-0.08-0.49-0.2-0.49-0.3s0.19-0.22,0.46-0.22c0.43,0,1.28,0,1.84,0
		c0.82,0,1.23,0,1.82,0c0.28,0,0.45,0.07,0.45,0.22s-0.18,0.24-0.45,0.29c-0.94,0.18-1,0.61-1,1.06
		c-0.117,1.587-0.154,3.179-0.11,4.77c0,1.15,0,2.13,0.06,2.67c0.06,0.93,0.13,1.24,1.18,1.46c0.3,0.073,0.45,0.173,0.45,0.3
		c0,0.14-0.26,0.22-0.46,0.22c-0.82,0-2-0.1-2.5-0.1s-0.72,0-1.34,0c-0.33,0-0.45-0.12-0.45-0.26s0.15-0.22,0.51-0.29
		c0.81-0.18,0.88-0.45,0.95-1.23c0.05-0.61,0.08-2.37,0.08-3.81C78.63,76.13,78.62,74.1,78.58,73.48z"></path>
    <path d="M89.34,71.83c0.1,0,0.2,0.29,0.22,0.34c0,0.29,0.17,1.33,0.17,1.4c0,0.29,0,0.44-0.14,0.44
		c-0.197-0.019-0.36-0.159-0.41-0.35c-0.165-0.467-0.443-0.886-0.81-1.22c-0.346-0.275-0.778-0.42-1.22-0.41
		c-1.027-0.008-1.867,0.817-1.875,1.845c0,0.052,0.001,0.104,0.005,0.155c0,1.15,0.82,1.67,2.31,2.67s2.34,1.88,2.34,3.3
		c-0.048,0.983-0.575,1.88-1.41,2.4c-0.69,0.398-1.473,0.609-2.27,0.61c-0.767-0.007-1.527-0.156-2.24-0.44
		c-0.178-0.136-0.319-0.315-0.41-0.52c-0.113-0.545-0.196-1.096-0.25-1.65c0-0.08,0.17-0.32,0.24-0.32c0.07,0,0.4,0.43,0.63,1
		c0.434,0.827,1.276,1.361,2.21,1.4c1.054,0.051,1.949-0.762,2-1.816c0.003-0.061,0.003-0.123,0-0.184c0-0.72-0.34-1.47-2-2.57
		c-1.49-1-2.48-1.94-2.48-3.4c0.007-0.8,0.348-1.562,0.94-2.1c0.706-0.575,1.601-0.864,2.51-0.81
		C88.052,71.621,88.701,71.698,89.34,71.83z"></path>
    <path d="M92.05,71.78c0.41,0,1.14,0,1.68,0h1.6c0.29,0,0.47,0.06,0.47,0.2s-0.23,0.24-0.48,0.29c-0.59,0.13-0.77,0.28-0.81,1
		s-0.05,3.26,0,3.6c0,0.07,0,0.12,0.11,0.12s0.24-0.12,0.26-0.12c0.53-0.42,3.11-3,3.68-3.65c0.43-0.47,0.38-0.74-0.2-0.9
		c-0.22-0.06-0.39-0.13-0.39-0.27s0.17-0.2,0.42-0.2h0.65c0.54,0,2.06-0.08,2.53-0.08c0.28,0,0.43,0.06,0.43,0.2s-0.2,0.23-0.48,0.3
		c-0.903,0.227-1.733,0.681-2.41,1.32c-1.08,0.891-2.099,1.853-3.05,2.88c0,0.1,0,0.13,0,0.17c0.37,0.5,3.22,3.51,4.44,4.78
		c0.428,0.513,1.036,0.842,1.7,0.92c0.19,0,0.36,0.17,0.36,0.23s-0.27,0.26-0.46,0.26c-0.43,0-2.05-0.14-2.51-0.14h-1.22
		c-0.17,0.022-0.325-0.097-0.348-0.267c-0.001-0.008-0.002-0.015-0.002-0.023c0-0.08,0.07-0.17,0.72-0.32
		c0.066-0.028,0.098-0.104,0.07-0.17l0,0c-0.49-0.68-2.63-3-3.48-3.92c-0.45-0.49-0.6-0.68-0.74-0.68s-0.07,0.17-0.08,0.35
		c0,0.55,0,3,0,3.64c0,0.44,0.22,0.7,1,0.88c0.3,0.09,0.4,0.19,0.4,0.31s-0.18,0.23-0.45,0.23s-1.54,0-2.06,0s-1.15,0-1.69,0
		c-0.2,0-0.4-0.1-0.4-0.22s0.12-0.22,0.49-0.3c0.82-0.17,1.12-0.41,1.15-1.41c0-0.59,0-2.14,0-4c0.04-1.187,0.016-2.375-0.07-3.56
		c0-0.62-0.23-0.81-0.88-1c-0.4-0.12-0.45-0.22-0.45-0.3S91.8,71.78,92.05,71.78z"></path>
    <path d="M105.53,73.48c-0.05-0.79-0.05-1.05-1-1.22c-0.38-0.08-0.48-0.2-0.48-0.3s0.18-0.22,0.45-0.22c0.43,0,1.29,0,1.84,0
		c0.82,0,1.24,0,1.82,0c0.29,0,0.46,0.07,0.46,0.22s-0.19,0.24-0.46,0.29c-0.93,0.18-0.95,0.61-1,1.06s-0.1,1.52-0.1,4.77
		c0,1.15,0,2.13,0,2.67c0.07,0.93,0.13,1.24,1.19,1.46c0.3,0.073,0.45,0.173,0.45,0.3c0,0.14-0.27,0.22-0.47,0.22
		c-0.82,0-2-0.1-2.49-0.1s-0.72,0-1.34,0c-0.34,0-0.45-0.12-0.45-0.26s0.15-0.22,0.5-0.29c0.82-0.18,0.89-0.45,0.95-1.23
		c0.05-0.61,0.09-2.37,0.09-3.81C105.58,76.13,105.56,74.1,105.53,73.48z"></path>
    <path d="M117.22,76.87c-0.08,0.07-0.41,0.22-0.55,0.3c-0.066,0.069-0.089,0.169-0.06,0.26c0.737,1.366,1.597,2.661,2.57,3.87
		c0.396,0.519,0.969,0.875,1.61,1c0.15,0,0.28,0.17,0.28,0.24s-0.15,0.17-0.25,0.2c-0.322,0.106-0.661,0.153-1,0.14
		c-0.882-0.015-1.712-0.418-2.27-1.1c-0.57-0.78-1.43-2.1-2.1-3.2c-0.178-0.293-0.389-0.565-0.63-0.81
		c-0.353-0.155-0.735-0.23-1.12-0.22c-0.098,0.016-0.174,0.092-0.19,0.19c0,0.3,0,2.47,0.05,3.4c0,0.72,0.2,0.94,1,1.15
		c0.28,0.06,0.4,0.2,0.4,0.27s-0.32,0.23-0.44,0.23c-0.67,0-1.08-0.1-2.16-0.1c-0.35,0-1.22,0.07-1.4,0.07s-0.45-0.09-0.45-0.25
		s0.15-0.17,0.37-0.26c0.75-0.23,1-0.35,1.07-1s0.1-2.38,0.1-3.5c0-2.44,0-4-0.1-4.58s-0.2-0.66-1-0.85c-0.25,0-0.41-0.15-0.41-0.29
		s0.12-0.2,0.46-0.2h1c0.62,0,1.84-0.08,2.74-0.08c0.982-0.091,1.965,0.164,2.78,0.72c0.589,0.532,0.93,1.286,0.94,2.08
		C118.46,75.482,117.995,76.352,117.22,76.87z M116.22,72.87c-0.445-0.395-1.015-0.622-1.61-0.64c-0.261,0.003-0.52,0.043-0.77,0.12
		c-0.08,0-0.18,0.3-0.2,0.35c0,0.61-0.1,3.79,0,4.13c0.035,0.119,0.13,0.21,0.25,0.24c0.69,0.002,1.372-0.144,2-0.43
		c0.673-0.469,1.073-1.239,1.07-2.06c-0.058-0.628-0.33-1.218-0.77-1.67L116.22,72.87z"></path>
    <path d="M120.32,84.79c0.129-0.104,0.279-0.18,0.44-0.22c0.181,0.036,0.356,0.096,0.52,0.18c0.256,0.214,0.569,0.349,0.9,0.39
		c0.248,0.03,0.492-0.082,0.63-0.29c0.294-0.388,0.449-0.863,0.44-1.35c0.07-1,0.1-2.93,0.1-5.33s-0.05-4.16-0.12-4.94
		c0-0.33-0.13-0.76-1-0.91c-0.38-0.08-0.52-0.2-0.52-0.34s0.14-0.2,0.47-0.2c0.52,0,1.12,0,1.86,0s1.3,0,1.82,0
		c0.22,0,0.46,0,0.46,0.18s-0.16,0.26-0.51,0.34c-0.65,0.14-0.92,0.36-0.92,1.22c0,1.39-0.06,6.12-0.08,7.58
		c0.054,1.622-0.63,3.181-1.86,4.24c-0.545,0.474-1.222,0.77-1.94,0.85c-0.55,0-1.12-0.34-1.12-0.69
		C119.975,85.233,120.122,84.989,120.32,84.79z"></path>
    <path d="M132.7,71.95l0.74,2.06c0.89,2.5,2.13,5.8,2.41,6.53c0.55,1.37,0.84,1.51,1.56,1.71c0.26,0.07,0.41,0.15,0.41,0.27
		s-0.13,0.24-0.55,0.24s-1.44-0.09-2.12-0.09s-0.86,0-1.29,0s-0.52-0.12-0.52-0.22s0.1-0.22,0.42-0.27c0.77-0.16,0.72-0.5,0.67-0.83
		c-0.252-0.954-0.559-1.892-0.92-2.81c0-0.07-0.1-0.19-0.52-0.19c-1.11,0-2.43,0-2.76,0.07c-0.07,0-0.15,0.1-0.19,0.15
		c-0.396,0.909-0.681,1.863-0.85,2.84c0,0.22,0.1,0.51,0.84,0.73c0.28,0.09,0.45,0.19,0.45,0.32s-0.25,0.22-0.49,0.22s-0.7,0-1.32,0
		s-1.47,0.09-1.72,0.09s-0.4-0.09-0.4-0.19s0.1-0.25,0.38-0.34c0.84-0.27,1.06-0.35,1.52-1.44c0.41-0.86,2.28-5.92,3-7.61
		c0.058-0.137,0.108-0.277,0.15-0.42c0.032-0.093,0.072-0.184,0.12-0.27l0.47-0.73c0.12-0.15,0.2-0.22,0.28-0.22
		S132.59,71.59,132.7,71.95z M133.14,77.48c-0.27-0.83-1.1-3.28-1.27-3.59c0-0.1-0.1-0.1-0.15,0c-0.3,0.81-1.16,3.13-1.29,3.64
		c0,0.06,0,0.11,0.1,0.11c0.65,0,2,0,2.58,0C133.147,77.595,133.158,77.535,133.14,77.48z"></path>
    <path d="M144.91,71.83c0.1,0,0.2,0.29,0.21,0.34c0,0.29,0.17,1.33,0.17,1.4c0,0.29,0,0.44-0.13,0.44
		c-0.198-0.02-0.364-0.159-0.42-0.35c-0.161-0.469-0.44-0.89-0.81-1.22c-0.829-0.652-2.03-0.508-2.682,0.321
		c-0.273,0.347-0.417,0.778-0.408,1.219c0,1.15,0.82,1.67,2.31,2.67s2.34,1.88,2.34,3.3c-0.046,0.981-0.569,1.877-1.4,2.4
		c-0.695,0.397-1.48,0.607-2.28,0.61c-0.767-0.007-1.527-0.156-2.24-0.44c-0.176-0.136-0.314-0.315-0.4-0.52
		c-0.115-0.545-0.202-1.096-0.26-1.65c0-0.08,0.17-0.32,0.24-0.32s0.4,0.43,0.64,1c0.431,0.826,1.269,1.359,2.2,1.4
		c1.054,0.051,1.949-0.762,2-1.816c0.003-0.061,0.003-0.123,0-0.184c0-0.72-0.33-1.47-2-2.57c-1.49-1-2.48-1.94-2.48-3.4
		c0.007-0.8,0.348-1.562,0.94-2.1c0.706-0.574,1.601-0.863,2.51-0.81C143.617,71.588,144.269,71.682,144.91,71.83z"></path>
    <path d="M156.17,71.8c0.409,0.012,0.814-0.088,1.17-0.29c0.12-0.07,0.18-0.12,0.25-0.12s0.17,0.15,0.08,0.39
		c-0.18,0.654-0.301,1.324-0.36,2c0,0.15-0.15,0.34-0.29,0.34s-0.2-0.12-0.25-0.54c-0.12-0.9-0.33-1-1.32-1c-0.3,0-2,0-2.29,0
		c-0.07,0-0.14,0.17-0.14,0.22c0,0.79,0,2.55,0,4c0,2,0,3.6,0.08,4.28s0.15,1,1.22,1.18c0.22,0,0.44,0.2,0.44,0.31
		s-0.29,0.22-0.47,0.22s-1.34-0.09-2-0.09s-1.72,0.12-2,0.12s-0.5-0.1-0.5-0.2s0.17-0.26,0.33-0.31c1.14-0.27,1.19-0.54,1.24-1.79
		c0-1,0.12-4.43,0.12-5.73v-2c0.002-0.098-0.058-0.186-0.15-0.22c-0.32-0.05-1.74-0.08-2-0.08c-0.431-0.047-0.862,0.096-1.18,0.39
		c-0.214,0.271-0.395,0.567-0.54,0.88c-0.17,0.35-0.27,0.37-0.33,0.37s-0.2-0.2-0.2-0.37c0.157-0.749,0.268-1.507,0.33-2.27
		c0-0.1,0.13-0.29,0.25-0.29s0.12,0.12,0.27,0.27c0.165,0.16,0.374,0.268,0.6,0.31c0.42,0,1.94,0.1,3.87,0.1L156.17,71.8z"></path>
    <path d="M169.48,77.11c0.059,1.894-0.811,3.697-2.33,4.83c-0.997,0.657-2.166,1.005-3.36,1c-1.657,0.009-3.24-0.69-4.35-1.92
		c-0.932-1.056-1.435-2.422-1.41-3.83c-0.032-1.762,0.778-3.433,2.18-4.5c1.001-0.747,2.211-1.163,3.46-1.19
		c3.091-0.116,5.69,2.295,5.806,5.386C169.479,76.961,169.48,77.035,169.48,77.11z M161.08,73.03c-0.95,1.105-1.409,2.549-1.27,4
		c0,2.52,1.77,5.39,4.38,5.39c0.781,0.059,1.55-0.221,2.11-0.77c0.984-1.092,1.491-2.532,1.41-4c0.011-1.747-0.715-3.417-2-4.6
		c-0.695-0.557-1.55-0.876-2.44-0.91c-0.808,0.034-1.579,0.349-2.18,0.89L161.08,73.03z"></path>
    <path d="M0.48,94.34c0.35,0,1.2,0,2,0c0.135,0.033,0.254,0.111,0.34,0.22c0.23,0.31,0.62,0.83,1.22,1.68s4,4.89,5,6.07
		c0.1,0.1,0.16-0.07,0.16-0.12c0.08-0.52,0-2.37,0-4.6c0-0.57,0-1.2-0.08-1.71c0-0.35-0.14-0.76-1-1c-0.31-0.1-0.43-0.22-0.43-0.37
		s0.2-0.17,0.42-0.17h1.26c0.58,0,1.11-0.06,1.51-0.06s0.35,0.06,0.35,0.18s-0.09,0.27-0.37,0.34c-0.67,0.2-0.92,0.39-1,1.25
		c0,0.59-0.17,4.15-0.17,6.73c0,0.71,0.11,2,0.11,2.34s-0.11,0.35-0.23,0.35S9,105.1,8.85,104.9c-0.27-0.37-0.56-0.8-1-1.36
		c-1.37-1.84-3.97-5.06-5.37-6.88c-0.06-0.08-0.18,0-0.18,0c0,0.46-0.06,0.93-0.06,2.25c0,1.69-0.06,4,0,4.6s0.21,1,1,1.24
		c0.31,0.08,0.38,0.2,0.38,0.3s-0.2,0.24-0.49,0.24c-0.45,0-1-0.08-1.59-0.08H0.45c-0.21,0-0.4,0-0.4-0.19s0.15-0.25,0.31-0.3
		c0.72-0.25,1-0.32,1.09-1.59c0.08-1.47,0.29-5.36,0.29-6.73c0-0.63-0.07-0.8-0.12-0.85c-0.279-0.439-0.743-0.726-1.26-0.78
		c-0.17,0-0.34-0.15-0.34-0.27S0.15,94.34,0.48,94.34z"></path>
    <path d="M16.37,94.48c0.14,0.46,0.4,1.24,0.68,2.07c0.81,2.5,2,5.8,2.21,6.52c0.51,1.37,0.77,1.51,1.44,1.71
		c0.24,0.07,0.38,0.15,0.38,0.27s-0.12,0.24-0.51,0.24s-1.32-0.08-2-0.08s-0.79,0-1.19,0s-0.48-0.12-0.48-0.22s0.1-0.22,0.39-0.27
		c0.71-0.15,0.66-0.49,0.61-0.83c-0.225-0.952-0.505-1.891-0.84-2.81c0-0.07-0.09-0.18-0.48-0.18c-1,0-2.23,0-2.54,0.06
		c-0.06,0-0.14,0.11-0.17,0.16c-0.371,0.913-0.636,1.866-0.79,2.84c0,0.22,0.1,0.51,0.77,0.72c0.27,0.09,0.42,0.19,0.42,0.33
		s-0.23,0.22-0.45,0.22s-0.64-0.05-1.21-0.05s-1.36,0.08-1.59,0.08s-0.37-0.08-0.37-0.19s0.09-0.25,0.36-0.33
		c0.77-0.27,1-0.36,1.4-1.44c0.37-0.86,2.09-5.92,2.74-7.61c0.08-0.22,0.11-0.32,0.14-0.43c0.022-0.094,0.056-0.184,0.1-0.27
		l0.44-0.72c0.1-0.16,0.18-0.22,0.26-0.22S16.26,94.16,16.37,94.48z M16.77,100.01c-0.25-0.83-1-3.28-1.17-3.58
		c0-0.1-0.09-0.1-0.14,0c-0.28,0.82-1.06,3.13-1.19,3.64c-0.011,0.054,0.024,0.107,0.078,0.118c0.007,0.001,0.015,0.002,0.022,0.002
		c0.6,0,1.84,0,2.37,0c0.028-0.045,0.038-0.098,0.03-0.15V100.01z"></path>
    <path d="M27.96,94.36c0.381,0.016,0.758-0.085,1.08-0.29c0.11-0.07,0.17-0.12,0.23-0.12s0.16,0.16,0.08,0.39
		c-0.171,0.656-0.285,1.325-0.34,2c0,0.16-0.14,0.34-0.26,0.34s-0.19-0.12-0.23-0.54c-0.11-0.89-0.31-1-1.22-1
		c-0.703-0.035-1.407-0.035-2.11,0c-0.06,0-0.12,0.17-0.12,0.22c0,0.8,0,2.56,0,4c0,2,0,3.61,0.08,4.28s0.14,1,1.12,1.19
		c0.2,0.05,0.4,0.2,0.4,0.3s-0.26,0.22-0.43,0.22s-1.23-0.08-1.84-0.08s-1.59,0.11-1.81,0.11s-0.46-0.1-0.46-0.2s0.16-0.25,0.31-0.3
		c1-0.27,1.09-0.54,1.14-1.8c0-1,0.11-4.43,0.11-5.73v-2c0.001-0.094-0.054-0.181-0.14-0.22c-0.29-0.05-1.6-0.09-1.87-0.09
		c-0.404-0.045-0.806,0.099-1.09,0.39c-0.195,0.275-0.359,0.57-0.49,0.88c-0.16,0.36-0.25,0.37-0.31,0.37s-0.18-0.2-0.18-0.37
		c0.144-0.75,0.244-1.508,0.3-2.27c0-0.1,0.13-0.28,0.24-0.28s0.1,0.11,0.24,0.27c0.149,0.158,0.346,0.264,0.56,0.3
		c0.38,0.05,1.78,0.1,3.55,0.1C25.3,94.39,27.36,94.38,27.96,94.36z"></path>
    <path d="M31.48,96.08c0-0.79,0-1-0.88-1.21c-0.36-0.09-0.45-0.21-0.45-0.31s0.17-0.22,0.42-0.22s1.18,0,1.69,0c0.76,0,1.14,0,1.68,0
		c0.26,0,0.42,0.07,0.42,0.22s-0.17,0.24-0.42,0.29c-0.86,0.19-0.88,0.61-0.92,1.07s-0.1,1.52-0.1,4.77c0,1.15,0,2.13,0,2.67
		c0.06,0.93,0.12,1.23,1.09,1.45c0.28,0.07,0.42,0.17,0.42,0.31s-0.25,0.22-0.43,0.22c-0.76,0-1.83-0.1-2.3-0.1s-0.66,0-1.23,0
		c-0.31,0-0.41-0.12-0.41-0.25s0.13-0.22,0.46-0.29c0.75-0.19,0.81-0.46,0.88-1.24c0-0.61,0.07-2.36,0.07-3.8
		C31.48,98.69,31.48,96.66,31.48,96.08z"></path>
    <path d="M45.48,99.67c0.071,1.844-0.711,3.618-2.12,4.81c-0.901,0.647-1.981,0.996-3.09,1c-1.552-0.004-3.021-0.705-4-1.91
		c-0.867-1.089-1.324-2.448-1.29-3.84c-0.046-1.725,0.689-3.378,2-4.5c0.902-0.738,2.025-1.153,3.19-1.18
		c2.966,0.03,5.345,2.458,5.316,5.424C45.485,99.539,45.483,99.605,45.48,99.67z M37.75,95.59c-0.882,1.137-1.3,2.567-1.17,4
		c0,2.52,1.63,5.4,4,5.4c0.735,0.05,1.453-0.237,1.95-0.78c0.917-1.124,1.377-2.552,1.29-4c0.031-1.715-0.624-3.371-1.82-4.6
		c-0.622-0.557-1.416-0.882-2.25-0.92c-0.748,0.047-1.452,0.368-1.98,0.9H37.75z"></path>
    <path d="M45.99,94.34c0.36,0,1.2,0,2,0c0.133,0.038,0.251,0.115,0.34,0.22c0.23,0.31,0.61,0.83,1.21,1.68s4,4.89,5,6.07
		c0.09,0.1,0.15-0.07,0.15-0.12c0.08-0.52,0-2.37,0-4.6c0-0.57,0-1.2-0.07-1.71c0-0.35-0.14-0.76-1-1c-0.31-0.1-0.43-0.22-0.43-0.37
		s0.2-0.17,0.41-0.17h1.26c0.59,0,1.11-0.06,1.51-0.06s0.36,0.06,0.36,0.18s-0.09,0.27-0.37,0.34c-0.68,0.2-0.93,0.39-1,1.25
		c0,0.59-0.17,4.15-0.17,6.73c0,0.71,0.11,2,0.11,2.34s-0.11,0.35-0.23,0.35s-0.57-0.37-0.73-0.57c-0.26-0.37-0.55-0.8-1-1.36
		c-1.45-1.89-4.06-5.12-5.45-6.93c-0.06-0.08-0.19,0-0.19,0c0,0.46-0.06,0.93-0.06,2.25c0,1.69-0.06,4,0,4.6
		c-0.064,0.618,0.382,1.172,1,1.24c0.31,0.08,0.39,0.2,0.39,0.3s-0.2,0.24-0.49,0.24c-0.45,0-1-0.08-1.59-0.08h-1.09
		c-0.22,0-0.4,0-0.4-0.19s0.15-0.25,0.3-0.3c0.73-0.25,1-0.32,1.1-1.59c0.07-1.47,0.29-5.36,0.29-6.73c0-0.63-0.08-0.8-0.12-0.85
		c-0.283-0.439-0.75-0.726-1.27-0.78c-0.17,0-0.34-0.15-0.34-0.27S45.67,94.34,45.99,94.34z"></path>
    <path d="M61.81,94.48c0.13,0.46,0.4,1.24,0.67,2.07c0.82,2.5,2,5.8,2.22,6.52c0.51,1.37,0.77,1.51,1.43,1.71
		c0.25,0.07,0.39,0.15,0.39,0.27s-0.12,0.24-0.51,0.24s-1.32-0.08-2-0.08c-0.68,0-0.78,0-1.18,0s-0.48-0.12-0.48-0.22
		s0.09-0.22,0.39-0.27c0.7-0.15,0.66-0.49,0.61-0.83c-0.229-0.951-0.51-1.889-0.84-2.81c0-0.07-0.1-0.18-0.48-0.18
		c-1,0-2.24,0-2.54,0.06c-0.06,0-0.14,0.11-0.17,0.16c-0.371,0.913-0.636,1.866-0.79,2.84c0,0.22,0.09,0.51,0.77,0.72
		c0.26,0.09,0.42,0.19,0.42,0.33s-0.23,0.22-0.45,0.22s-0.65-0.05-1.22-0.05s-1.35,0.08-1.58,0.08s-0.37-0.08-0.37-0.19
		s0.09-0.25,0.35-0.33c0.77-0.27,1-0.36,1.4-1.44c0.37-0.86,2.1-5.92,2.75-7.61c0.07-0.22,0.1-0.32,0.13-0.43
		c0.031-0.092,0.068-0.182,0.11-0.27c0.11-0.18,0.33-0.54,0.43-0.72s0.19-0.22,0.27-0.22S61.7,94.16,61.81,94.48z M62.21,100.01
		c-0.25-0.83-1-3.28-1.17-3.58c0-0.1-0.1-0.1-0.14,0c-0.28,0.82-1.07,3.13-1.19,3.64c-0.017,0.047,0.008,0.098,0.055,0.115
		c0.011,0.004,0.023,0.006,0.035,0.005c0.6,0,1.85,0,2.38,0c0.028-0.045,0.038-0.098,0.03-0.15V100.01z"></path>
    <path d="M67.59,94.36c0.42,0,0.79,0,1.24,0c0.6,0,1.64,0,2,0s0.4,0.07,0.4,0.19s-0.12,0.23-0.33,0.29c-0.88,0.22-1,0.42-1,0.66
		c-0.09,0.79-0.11,2.5-0.11,5c0,1.29,0,2.86,0.11,3.42c0.078,0.282,0.275,0.516,0.54,0.64c0.469,0.078,0.945,0.108,1.42,0.09
		c0.367,0.002,0.734-0.014,1.1-0.05c0.223-0.025,0.428-0.136,0.57-0.31c0.352-0.353,0.658-0.75,0.91-1.18
		c0.17-0.27,0.31-0.36,0.39-0.36s0.12,0.19,0.06,0.46c-0.19,0.61-0.344,1.231-0.46,1.86c0,0.17-0.33,0.29-0.39,0.29
		s-1.57-0.1-4.71-0.1c-1,0-1.77,0.08-2,0.08c-0.23,0-0.45,0-0.45-0.19s0.13-0.27,0.37-0.32c0.85-0.17,1.05-0.49,1.13-1.16
		c0-0.43,0.07-2.93,0.07-5.37c0-0.88,0-1.94,0-2.5s-0.09-0.73-0.82-0.9c-0.3-0.06-0.43-0.18-0.43-0.3S67.27,94.36,67.59,94.36z"></path>
    <path d="M81.11,99.11c0,0,0,0.12,0,0.14c1.142,0.455,1.891,1.561,1.89,2.79c0.033,0.993-0.442,1.935-1.26,2.5
		c-0.824,0.524-1.784,0.795-2.76,0.78c-0.43,0-1.94-0.07-2.65-0.07h-1c-0.24,0-0.46-0.09-0.46-0.24s0.23-0.22,0.4-0.25
		c1-0.24,1.08-0.46,1.14-1c0-0.36,0.11-2.19,0.11-5.53c0.027-0.888-0.003-1.776-0.09-2.66c-0.08-0.37-0.14-0.54-1-0.66
		c-0.21,0-0.41-0.15-0.41-0.29s0.2-0.22,0.41-0.22h1c0.5,0,1.94-0.11,2.57-0.11c0.759-0.039,1.514,0.134,2.18,0.5
		c0.702,0.475,1.116,1.273,1.1,2.12C82.324,97.803,81.875,98.648,81.11,99.11z M80.22,100.01c-0.486-0.244-1.026-0.361-1.57-0.34
		c-0.225-0.005-0.447,0.043-0.65,0.14c0,0-0.09,0.11-0.1,0.55c-0.01,0.44,0,2.74,0.06,3.3c0.027,0.209,0.106,0.409,0.23,0.58
		c0.261,0.296,0.612,0.497,1,0.57c1.313-0.066,2.323-1.184,2.257-2.497c-0.002-0.035-0.004-0.069-0.007-0.103
		C81.472,101.307,81.002,100.461,80.22,100.01z M78.77,94.82c-0.218,0.018-0.433,0.062-0.64,0.13c-0.077,0.076-0.135,0.168-0.17,0.27
		c0,0.27-0.08,1-0.08,3.72c0,0.09,0,0.22,0.17,0.22c0.719,0.018,1.434-0.125,2.09-0.42c0.53-0.415,0.834-1.056,0.82-1.73
		c0.11-1.099-0.691-2.08-1.79-2.19C79.037,94.807,78.903,94.807,78.77,94.82z"></path>
    <path d="M85.53,96.08c0-0.79,0-1-0.88-1.21c-0.35-0.09-0.44-0.21-0.44-0.31s0.17-0.22,0.41-0.22c0.4,0,1.19,0,1.7,0
		c0.75,0,1.14,0,1.68,0c0.26,0,0.41,0.07,0.41,0.22S88.24,94.8,88,94.85c-0.87,0.19-0.88,0.61-0.93,1.07s-0.09,1.52-0.09,4.77
		c0,1.15,0,2.13,0.05,2.67c0.06,0.93,0.12,1.23,1.09,1.45c0.28,0.07,0.42,0.17,0.42,0.31s-0.25,0.22-0.44,0.22
		c-0.75,0-1.83-0.1-2.29-0.1s-0.66,0-1.23,0c-0.31,0-0.42-0.12-0.42-0.25s0.14-0.22,0.46-0.29c0.76-0.19,0.82-0.46,0.88-1.24
		c0-0.61,0.08-2.36,0.08-3.8C85.58,98.69,85.56,96.66,85.53,96.08z"></path>
    <path d="M95.39,99.11c0,0,0,0.12,0,0.14c1.142,0.455,1.891,1.561,1.89,2.79c0.033,0.993-0.442,1.935-1.26,2.5
		c-0.824,0.524-1.784,0.795-2.76,0.78c-0.43,0-1.94-0.07-2.65-0.07h-1c-0.25,0-0.46-0.09-0.46-0.24s0.23-0.22,0.4-0.25
		c1-0.24,1.07-0.46,1.14-1c0-0.36,0.1-2.19,0.1-5.53c0.027-0.888-0.003-1.776-0.09-2.66c-0.08-0.37-0.14-0.54-1-0.66
		c-0.22,0-0.42-0.15-0.42-0.29s0.2-0.22,0.42-0.22h1c0.51,0,1.94-0.11,2.57-0.11c0.762-0.038,1.52,0.135,2.19,0.5
		c0.696,0.479,1.105,1.275,1.09,2.12C96.594,97.8,96.149,98.644,95.39,99.11z M94.49,100.01c-0.486-0.244-1.026-0.361-1.57-0.34
		c-0.222-0.007-0.442,0.041-0.64,0.14c0,0-0.1,0.11-0.11,0.55s0,2.74,0.06,3.3c0.032,0.208,0.11,0.407,0.23,0.58
		c0.261,0.295,0.613,0.495,1,0.57c1.313-0.066,2.323-1.184,2.257-2.497c-0.002-0.035-0.004-0.069-0.007-0.103
		c0.03-0.905-0.444-1.752-1.23-2.2H94.49z M93.05,94.82c-0.221,0.017-0.439,0.061-0.65,0.13c-0.073,0.078-0.131,0.17-0.17,0.27
		c0,0.27-0.08,1-0.08,3.72c0,0.09,0.05,0.22,0.17,0.22c0.722,0.017,1.44-0.126,2.1-0.42c0.524-0.419,0.824-1.059,0.81-1.73
		c0.11-1.099-0.692-2.079-1.791-2.189C93.31,94.808,93.179,94.808,93.05,94.82z"></path>
    <path d="M99.05,94.36c0.42,0,0.79,0,1.23,0c0.6,0,1.65,0,2,0s0.4,0.07,0.4,0.19s-0.12,0.23-0.34,0.29c-0.88,0.22-1,0.42-1,0.66
		c-0.1,0.79-0.11,2.5-0.11,5c0,1.29,0,2.86,0.11,3.42c0.075,0.28,0.269,0.514,0.53,0.64c0.469,0.078,0.945,0.108,1.42,0.09
		c0.371,0.002,0.741-0.014,1.11-0.05c0.223-0.027,0.426-0.138,0.57-0.31c0.349-0.356,0.655-0.752,0.91-1.18
		c0.17-0.27,0.31-0.36,0.38-0.36s0.13,0.19,0.06,0.46c-0.21,0.78-0.35,1.25-0.46,1.86c0,0.17-0.32,0.29-0.38,0.29s-1.57-0.1-4.71-0.1
		c-1,0-1.78,0.08-2.05,0.08s-0.45,0-0.45-0.19s0.12-0.27,0.37-0.32c0.85-0.17,1.05-0.49,1.12-1.16c0.05-0.43,0.08-2.93,0.08-5.37
		c0-0.88,0-1.94,0-2.5s-0.1-0.73-0.82-0.9c-0.31-0.06-0.43-0.18-0.43-0.3S98.73,94.36,99.05,94.36z"></path>
    <path d="M108.48,96.08c0-0.79,0-1-0.88-1.21c-0.35-0.09-0.44-0.21-0.44-0.31s0.17-0.22,0.41-0.22c0.4,0,1.19,0,1.7,0
		c0.75,0,1.14,0,1.68,0c0.26,0,0.41,0.07,0.41,0.22s-0.17,0.24-0.41,0.29c-0.87,0.19-0.88,0.61-0.93,1.07s-0.09,1.52-0.09,4.77
		c0,1.15,0,2.13,0.05,2.67c0.06,0.93,0.12,1.23,1.09,1.45c0.28,0.07,0.41,0.17,0.41,0.31s-0.24,0.22-0.43,0.22
		c-0.75,0-1.83-0.1-2.29-0.1s-0.66,0-1.23,0c-0.31,0-0.42-0.12-0.42-0.25s0.14-0.22,0.46-0.29c0.76-0.19,0.82-0.46,0.88-1.24
		c0-0.61,0.08-2.36,0.08-3.8C108.48,98.69,108.48,96.66,108.48,96.08z"></path>
    <path d="M122.36,99.67c0.075,1.858-0.715,3.645-2.14,4.84c-0.901,0.647-1.981,0.996-3.09,1c-1.552-0.004-3.021-0.705-4-1.91
		c-0.867-1.089-1.324-2.448-1.29-3.84c-0.042-1.724,0.692-3.376,2-4.5c0.902-0.738,2.025-1.153,3.19-1.18
		c2.966,0.02,5.354,2.44,5.334,5.405C122.364,99.547,122.363,99.609,122.36,99.67z M114.63,95.59c-0.882,1.137-1.3,2.567-1.17,4
		c0,2.52,1.63,5.4,4,5.4c0.732,0.049,1.446-0.238,1.94-0.78c0.917-1.124,1.377-2.552,1.29-4c0.031-1.715-0.624-3.371-1.82-4.6
		c-0.622-0.557-1.416-0.882-2.25-0.92C115.869,94.735,115.16,95.055,114.63,95.59L114.63,95.59z"></path>
    <path d="M131.08,94.36c0.378,0.017,0.752-0.084,1.07-0.29c0.11-0.07,0.17-0.12,0.24-0.12s0.15,0.16,0.07,0.39
		c-0.166,0.657-0.28,1.325-0.34,2c0,0.16-0.13,0.34-0.26,0.34s-0.18-0.12-0.23-0.54c-0.11-0.89-0.31-1-1.22-1
		c-0.703-0.035-1.407-0.035-2.11,0c-0.06,0-0.12,0.17-0.12,0.22c0,0.8,0,2.56,0,4c0,2,0,3.61,0.07,4.28s0.14,1,1.13,1.19
		c0.2,0.05,0.4,0.2,0.4,0.3s-0.26,0.22-0.43,0.22s-1.24-0.08-1.85-0.08s-1.59,0.11-1.8,0.11s-0.47-0.1-0.47-0.2s0.16-0.25,0.31-0.3
		c1-0.27,1.1-0.54,1.14-1.8c0-1,0.11-4.43,0.11-5.73v-2c0-0.12-0.09-0.22-0.14-0.22c-0.29-0.05-1.6-0.09-1.86-0.09
		c-0.407-0.045-0.812,0.099-1.1,0.39c-0.186,0.28-0.35,0.574-0.49,0.88c-0.15,0.36-0.24,0.37-0.31,0.37s-0.18-0.2-0.18-0.37
		c0.149-0.75,0.252-1.508,0.31-2.27c0-0.1,0.12-0.28,0.23-0.28s0.11,0.11,0.24,0.27c0.149,0.158,0.346,0.264,0.56,0.3
		c0.38,0.05,1.79,0.1,3.56,0.1C128.41,94.39,130.48,94.38,131.08,94.36z"></path>
    <path d="M138.42,94.39c0.474,0.011,0.948-0.009,1.42-0.06c0,0,0.12,0.11,0.14,0.2c0,0.68,0,1.3,0,1.64s-0.11,0.46-0.25,0.46
		s-0.22-0.24-0.25-0.43c-0.2-0.89-0.55-1.08-1-1.16c-0.727-0.085-1.459-0.115-2.19-0.09c0,0-0.18,0.09-0.22,0.49s-0.07,3.44,0,3.82
		c0,0.07,0,0.16,0.12,0.16h1c1.39,0,1.42-0.05,1.7-0.83c0.09-0.26,0.2-0.37,0.29-0.37s0.15,0.25,0.14,0.4c0,0.46,0,0.8,0,1.2
		s0,0.7,0,1.07s-0.06,0.47-0.19,0.47s-0.21-0.18-0.26-0.35c-0.21-0.78-0.31-0.85-1.17-0.9c-0.49,0-1.11,0-1.54,0
		c-0.06,0-0.14,0.11-0.14,0.15c-0.06,0.39,0,1.91,0,2.6c-0.009,0.466,0.031,0.932,0.12,1.39c0.047,0.166,0.159,0.306,0.31,0.39
		c0.452,0.08,0.911,0.12,1.37,0.12c0.49,0.008,0.98-0.039,1.46-0.14c0.588-0.2,1.05-0.662,1.25-1.25c0.18-0.39,0.29-0.49,0.38-0.49
		s0.16,0.29,0.13,0.47c-0.143,0.629-0.33,1.247-0.56,1.85c-0.073,0.092-0.175,0.156-0.29,0.18c-0.17,0-2.8-0.11-5-0.11
		c-0.84,0-1.15,0.08-1.72,0.08c-0.29,0-0.48,0-0.48-0.22s0.19-0.22,0.43-0.29c0.79-0.18,1.07-0.34,1.13-1.25
		c0-0.69,0.11-2.54,0.11-4.63s0-2.47,0-3c-0.05-0.71-0.2-1-0.87-1.1c-0.32-0.09-0.46-0.16-0.46-0.29s0.23-0.24,0.45-0.24
		c0.72,0,1.46,0,2.43,0L138.42,94.39z"></path>
    <path d="M142.08,94.34c0.37,0,1.05,0,1.54,0h1.48c0.26,0,0.43,0.07,0.43,0.2s-0.21,0.24-0.44,0.29c-0.54,0.14-0.71,0.29-0.74,1
		s-0.05,3.27,0,3.61c0,0.06,0.05,0.12,0.11,0.12s0.22-0.12,0.23-0.12c0.49-0.43,2.87-3,3.39-3.66c0.4-0.47,0.35-0.74-0.19-0.89
		c-0.2-0.07-0.35-0.14-0.35-0.27s0.15-0.21,0.38-0.21h0.56c0.49,0,1.89-0.08,2.32-0.08c0.26,0,0.4,0.07,0.4,0.2s-0.18,0.24-0.45,0.31
		c-0.843,0.232-1.607,0.688-2.21,1.32c-1.001,0.892-1.939,1.851-2.81,2.87c0,0.1,0,0.14,0,0.17c0.34,0.51,3,3.52,4.08,4.79
		c0.386,0.5,0.954,0.827,1.58,0.91c0.17,0,0.32,0.17,0.32,0.24s-0.25,0.25-0.42,0.25c-0.4,0-1.89-0.13-2.31-0.13h-1.12
		c-0.165,0.011-0.308-0.114-0.319-0.279c0-0.004,0-0.007-0.001-0.011c0-0.08,0.06-0.16,0.66-0.32c0.06,0,0.09-0.11,0.06-0.17
		c-0.45-0.67-2.42-3-3.2-3.92c-0.42-0.49-0.56-0.68-0.68-0.68s-0.06,0.17-0.08,0.36c0,0.54,0,3,0,3.64c0,0.44,0.2,0.69,0.9,0.87
		c0.27,0.09,0.37,0.19,0.37,0.31s-0.17,0.24-0.42,0.24s-1.42-0.05-1.89-0.05s-1.07,0.05-1.56,0.05c-0.18,0-0.37-0.11-0.37-0.22
		s0.11-0.22,0.45-0.31c0.75-0.17,1-0.4,1.06-1.4c0-0.59,0.05-2.15,0.05-4c0-2.71,0-2.94-0.07-3.55s-0.21-0.81-0.81-1
		c-0.37-0.12-0.42-0.22-0.42-0.31S141.85,94.34,142.08,94.34z"></path>
    <path d="M157.53,94.39c0.471,0.011,0.942-0.009,1.41-0.06c0,0,0.13,0.11,0.14,0.2c0,0.68,0,1.3,0,1.64s-0.1,0.46-0.24,0.46
		s-0.22-0.24-0.25-0.43c-0.2-0.89-0.55-1.08-1-1.16c-0.723-0.085-1.452-0.115-2.18-0.09c0,0-0.19,0.09-0.22,0.49s-0.07,3.44,0,3.82
		c0,0.07,0,0.16,0.12,0.16h1c1.39,0,1.42-0.05,1.69-0.83c0.1-0.26,0.21-0.37,0.3-0.37s0.15,0.25,0.14,0.4c0,0.46-0.05,0.8-0.05,1.2
		s0,0.7,0.05,1.07s-0.06,0.47-0.19,0.47s-0.21-0.18-0.26-0.35c-0.22-0.78-0.31-0.85-1.17-0.9c-0.49,0-1.11,0-1.54,0
		c-0.06,0-0.14,0.11-0.14,0.15c-0.06,0.39,0,1.91,0,2.6c-0.007,0.467,0.037,0.933,0.13,1.39c0.043,0.168,0.156,0.31,0.31,0.39
		c0.452,0.08,0.911,0.12,1.37,0.12c0.49,0.007,0.98-0.039,1.46-0.14c0.588-0.2,1.05-0.662,1.25-1.25c0.18-0.39,0.29-0.49,0.38-0.49
		s0.16,0.29,0.12,0.47c-0.139,0.629-0.323,1.247-0.55,1.85c-0.074,0.09-0.176,0.154-0.29,0.18c-0.17,0-2.8-0.11-5-0.11
		c-0.84,0-1.15,0.08-1.72,0.08c-0.3,0-0.48,0-0.48-0.22s0.18-0.22,0.43-0.29c0.79-0.18,1.06-0.34,1.13-1.25c0-0.69,0.1-2.54,0.1-4.63
		s0-2.47,0-3c0-0.71-0.2-1-0.86-1.1c-0.32-0.09-0.46-0.16-0.46-0.29s0.23-0.24,0.45-0.24c0.72,0,1.46,0,2.43,0L157.53,94.39z"></path>
    <path d="M168.66,94.36c0.381,0.014,0.757-0.087,1.08-0.29c0.11-0.07,0.17-0.12,0.23-0.12s0.15,0.16,0.08,0.39
		c-0.176,0.654-0.29,1.324-0.34,2c0,0.16-0.14,0.34-0.26,0.34s-0.19-0.12-0.24-0.54c-0.1-0.89-0.3-1-1.21-1
		c-0.703-0.035-1.407-0.035-2.11,0c-0.06,0-0.12,0.17-0.12,0.22c0,0.8,0,2.56,0,4c0,2,0,3.61,0.08,4.28s0.14,1,1.12,1.19
		c0.2,0.05,0.4,0.2,0.4,0.3s-0.26,0.22-0.43,0.22s-1.23-0.08-1.85-0.08s-1.58,0.11-1.8,0.11s-0.46-0.1-0.46-0.2s0.15-0.25,0.31-0.3
		c1-0.27,1.09-0.54,1.14-1.8c0-1,0.1-4.43,0.1-5.73v-2c0-0.12-0.09-0.22-0.14-0.22c-0.29-0.05-1.6-0.09-1.86-0.09
		c-0.404-0.045-0.806,0.099-1.09,0.39c-0.195,0.275-0.359,0.57-0.49,0.88c-0.16,0.36-0.25,0.37-0.31,0.37s-0.19-0.2-0.19-0.37
		c0.149-0.75,0.252-1.508,0.31-2.27c0-0.1,0.12-0.28,0.23-0.28s0.11,0.11,0.25,0.27c0.146,0.156,0.339,0.261,0.55,0.3
		c0.39,0.05,1.79,0.1,3.56,0.1C166,94.39,168.06,94.38,168.66,94.36z"></path>
    <rect x="0.01" y="116.7" width="169.77" height="5.19"></rect>
    <path d="M110.84,10.03l-4.07-0.07c1.135,0.58,2.051,1.514,2.61,2.66c2.12,3.39,0.92,8.76-3.26,10
		C114.59,25.95,118,13.64,110.84,10.03z"></path>
    <path d="M63.86,22.66c-4.18-1.26-5.38-6.63-3.26-10c0.56-1.168,1.512-2.102,2.69-2.64h-4.06C52.07,13.58,55.39,25.97,63.86,22.66z"></path>
    <path d="M0.01,0v3.21l48.73,0.68c0.151,0.652,0.43,1.267,0.82,1.81c0.87,1.11,1.45,1.15,1.45,1.15h26.18
		c0.057,0.421,0.15,0.836,0.28,1.24H55.23l0,0c0.454,1.238,1.688,2.011,3,1.88h5c1.709-0.869,3.731-0.869,5.44,0l0,0
		c0.156,0.079,0.307,0.169,0.45,0.27c0.684,0.424,1.278,0.978,1.75,1.63l0.08,0.09c3.15,3.55,4.4,8.31,5.33,12.91
		c0.42-4.1,0.25-7.92,3-10.58c1.5-1.45,3.37-0.06,3.63,1.93c0.33,1.4,0.29,5.42-1.63,5.4c-1.23-0.79-1.6-3-1.2-4.31
		c0.4-1.31,1.5-1.31,1.54,0.21c0.1,1.74-0.53,1.78-1,0.26c-0.32,0.94,0.42,3.26,1.31,2.06c1.27-2.5-0.7-7.15-2.89-3.25
		c-2.89,5.87-1.81,13.18-2,19.71c-1.76-6.22-2.09-12.74-5.16-18.82c-0.012,0.068-0.029,0.135-0.05,0.2v-0.24
		c-0.74-1.465-1.624-2.851-2.64-4.14c-1.675-1.903-4.576-2.087-6.478-0.412c-0.188,0.166-0.363,0.347-0.522,0.542
		c-1.73,2.57-0.89,7.74,2.87,7.66c3.25-0.24,4.25-7,0.22-6.79c-1.61,0.17-2.15,3.44-0.13,4c-0.75-0.2-0.94-2.4,0.13-2.58
		c2.12-0.35,1.59,4.2-0.09,4c-3.59-0.36-2.83-6.12,0-6.65c5.37-0.65,5.37,9.82-0.06,9.6c3.13,0.11,5.79,1.55,6.54,4.71
		c-2.74-3.9-9.72-5.41-12.14-0.46c-0.5,0.69-0.93,3.7,0.75,1.84c5.63-5.62,11.62,1.3,12.72,7.27c-0.92-1.28-1.65-2.69-2.62-3.93
		c-5.46-7.3-12,1.51-8.79,3.56c1.17-0.24,1.22-1.6,3.07-2c3.38-0.7,5.84,2.64,6.88,5.65c-1.18-0.75-2-1.45-3.64-1.3
		c-1.708,0.269-3.205,1.289-4.08,2.78c-0.33,0.66-0.7,2,0.3,2.08c1.6-0.07,2.4-1.74,3.95-2c2.323-0.676,4.754,0.658,5.43,2.981
		c0.022,0.076,0.042,0.152,0.06,0.229c0.54,2.4,0.4,5.24,1.63,7.37c-4.9-1.52-0.49-12.25-7.89-9.61c-0.68,0.24,1,1.26,1.34,2.34
		c0.247,0.92,0.431,1.855,0.55,2.8c0.22,2,0.59,3.33,2.14,4.54c0.17,0.13,0.1,0.26,0.1,0.26h-1.52
		c-1.051,0.011-1.896,0.869-1.89,1.92v0.78c-0.05,1.054,0.764,1.948,1.817,1.998c0.018,0.001,0.035,0.001,0.053,0.002h30
		c1.055-0.004,1.906-0.863,1.902-1.918c0-0.027-0.001-0.055-0.002-0.082v-0.82c0.006-1.051-0.839-1.909-1.89-1.92h-1.52
		c0,0-0.07-0.13,0.11-0.26c1.55-1.21,1.91-2.58,2.13-4.54c0.118-0.946,0.305-1.882,0.56-2.8c0.32-1.08,2-2.1,1.34-2.34
		c-7.41-2.64-3,8.09-7.89,9.61c1.23-2.13,1.09-5,1.63-7.37c0.55-2.356,2.905-3.82,5.261-3.27c0.077,0.018,0.153,0.038,0.229,0.06
		c1.54,0.3,2.35,2,3.95,2c1-0.11,0.63-1.42,0.3-2.08c-0.875-1.491-2.372-2.511-4.08-2.78c-1.65-0.15-2.47,0.55-3.65,1.3
		c1.05-3,3.51-6.35,6.89-5.65c1.85,0.39,1.89,1.75,3.07,2c3.23-2-3.33-10.86-8.8-3.56c-1,1.24-1.7,2.65-2.61,3.93
		c1.09-6,7.09-12.89,12.71-7.27c1.68,1.86,1.25-1.15,0.76-1.84c-2.43-5-9.4-3.44-12.14,0.46c0.74-3.16,3.4-4.6,6.54-4.71
		c-5.44,0.22-5.43-10.25-0.07-9.6c2.83,0.53,3.59,6.29,0,6.65c-1.67,0.17-2.2-4.38-0.08-4c1.06,0.18,0.88,2.38,0.13,2.58
		c2-0.55,1.48-3.82-0.13-4c-4-0.19-3,6.55,0.21,6.79c3.76,0.08,4.61-5.09,2.88-7.66c-1.587-1.977-4.476-2.293-6.453-0.706
		c-0.216,0.173-0.416,0.366-0.597,0.576c-5.66,7.18-5.66,15.3-7.82,23c-0.17-6.53,0.91-13.84-2-19.71c-2.19-3.9-4.16,0.75-2.9,3.25
		c0.9,1.2,1.63-1.12,1.31-2.06c-0.45,1.52-1.08,1.48-1-0.26c0-1.52,1.17-1.42,1.54-0.21s0,3.52-1.2,4.31c-1.92,0-2-4-1.63-5.4
		c0.25-2,2.13-3.38,3.62-1.93c2.73,2.66,2.56,6.48,3,10.58c0.94-4.6,2.19-9.36,5.34-12.91c0.361-0.418,0.76-0.803,1.19-1.15
		c1.109-0.964,2.53-1.493,4-1.49c1.052-0.004,2.087,0.268,3,0.79h4.65c1.315,0.011,2.504-0.782,3-2l0,0h-22.3
		c0.125-0.406,0.219-0.82,0.28-1.24h26.18c0,0,0.58,0,1.45-1.15c0.384-0.545,0.66-1.16,0.81-1.81l48.73-0.68V0H0.01z M89.9,3.82
		c-0.119,0.596-0.577,1.066-1.17,1.2l-1.6,0.34l0,0L88,3.96c0.216-0.32,0.533-0.56,0.9-0.68C89.48,3.11,89.92,3.35,89.9,3.82z
		 M86.1,4.34c0.11-0.54,0.21-1.08,0.33-1.62c0.073-0.395,0.286-0.75,0.6-1c0.46-0.36,1-0.3,1.12,0.14
		c0.139,0.627-0.129,1.274-0.67,1.62l-1.38,0.9V4.34z M86.46,6.75c-0.02,0.777-0.57,1.438-1.33,1.6c-2.05,0.37-2.59-2.61-0.71-2.76
		c0,0.5-0.68,1-0.26,1.54c0.273,0.34,0.771,0.394,1.111,0.121c0.262-0.211,0.362-0.564,0.249-0.881c-0.16-0.63-1.13-1.07-0.63-1.87
		c0.933,0.364,1.558,1.249,1.59,2.25H86.46z M84.9,13.6c0.529,0.014,1.059-0.026,1.58-0.12c-0.704,1.172-1.22,2.448-1.53,3.78l0,0
		c-0.324-1.337-0.861-2.613-1.59-3.78C83.868,13.571,84.384,13.611,84.9,13.6z M84.26,10.72c0.21-0.52,0.43-1,0.64-1.53l0,0
		l0.64,1.53c0.125,0.366,0.125,0.764,0,1.13c-0.18,0.57-0.64,0.81-1,0.52C84.135,11.921,84.025,11.278,84.26,10.72z M84.26,2.28
		c0.21-0.52,0.43-1,0.64-1.53l0,0c0.21,0.51,0.43,1,0.64,1.53c0.125,0.366,0.125,0.764,0,1.13c-0.18,0.56-0.64,0.8-1,0.52
		C84.135,3.481,84.025,2.838,84.26,2.28z M81.64,1.93c0.15-0.44,0.66-0.51,1.13-0.14c0.297,0.244,0.507,0.577,0.6,0.95
		c0.11,0.54,0.21,1.09,0.32,1.63l0,0l-1.38-0.9C81.806,3.131,81.544,2.53,81.64,1.93z M80.9,3.31c0.363,0.118,0.676,0.354,0.89,0.67
		l0.88,1.4l0,0c-0.54-0.11-1.07-0.21-1.61-0.34c-0.59-0.135-1.045-0.606-1.16-1.2C79.87,3.38,80.33,3.14,80.9,3.31z M72.9,11.09
		l-0.62-1.08h6.2c0.199,0.418,0.466,0.8,0.79,1.13L72.9,11.09z M79.21,6.92c-0.28-0.37,0-0.83,0.52-1c0.362-0.131,0.758-0.131,1.12,0
		l1.51,0.65l0,0l-1.51,0.64c-0.547,0.228-1.177,0.114-1.61-0.29L79.21,6.92z M79.87,9.38c0.118-0.593,0.571-1.062,1.16-1.2l1.61-0.34
		l0,0c-0.29,0.47-0.58,0.94-0.88,1.4c-0.21,0.322-0.524,0.562-0.89,0.68c-0.54,0.17-1-0.07-0.97-0.54H79.87z M82.77,11.48
		c-0.47,0.36-1,0.3-1.13-0.14c-0.098-0.6,0.164-1.203,0.67-1.54l1.38-0.9l0,0c-0.11,0.54-0.21,1.08-0.32,1.63
		C83.277,10.903,83.067,11.236,82.77,11.48z M74.78,40.48c-0.71,0-0.42,1.22-1.45,0.22c-0.84-0.52-0.26-1.55,0.23-2
		c1.78-2.15,6.26-2.55,8.09-0.67c2.63,3.13,1.43,8.44,2.66,12.27c0.12,0.3,0.35,0.44,0.41,0.81c-2.4-0.89-2.94-3.64-3.09-6.62
		c0.028-1.207-0.073-2.414-0.3-3.6c-0.29-1.55-1-1.25-2-0.45c-0.93,0.64-3,1.43-4.16,0.69C75.08,41.01,75.03,40.54,74.78,40.48z
		 M79.05,34.02c0.25-2.32,0.67-4.69,2.47-6.22c1.64-1,2.19-0.6,3.38-0.42c1.19-0.18,1.73-0.61,3.38,0.42c1.8,1.53,2.21,3.9,2.47,6.22
		c0.051,0.331,0.075,0.665,0.07,1h-0.34c0-0.15-0.07-0.34-0.09-0.41c-0.167-1.03-0.67-1.976-1.43-2.69c-1.05-1-2.32,0.59-3.37-0.35
		c-0.197-0.267-0.433-0.503-0.7-0.7c-0.271,0.192-0.508,0.429-0.7,0.7c-1.06,0.94-2.32-0.61-3.37,0.35
		c-0.763,0.713-1.27,1.659-1.44,2.69c-0.02,0.138-0.046,0.275-0.08,0.41h-0.33c-0.01-0.329,0.017-0.657,0.08-0.98V34.02z M77.94,45.6
		c0.121,1.071,0.386,2.121,0.79,3.12c0.386,0.867,0.855,1.694,1.4,2.47c-1.06,0.14-1.59-0.8-2.08-1.43c-1.18-1.412-1.88-3.163-2-5
		c-0.069-0.367-0.069-0.743,0-1.11c0.16-0.42,1.52-0.44,1.81-0.1c0.29,0.34,0.02,1.57,0.08,2.07V45.6z M95.83,52.4
		c0.526-0.031,1.054-0.031,1.58,0l0,0c0.488,0.14,0.771,0.65,0.631,1.138c-0.039,0.134-0.107,0.258-0.201,0.362
		c-0.441,0.187-0.925,0.253-1.4,0.19H73.3c-0.52,0-1.16,0-1.39-0.19c-0.34-0.378-0.31-0.959,0.068-1.299
		c0.104-0.094,0.228-0.162,0.362-0.201l0,0c0.53-0.031,1.06-0.031,1.59,0h21.86H95.83z M91.92,43.59c0.29-0.34,1.65-0.32,1.8,0.1
		c0.069,0.367,0.069,0.743,0,1.11c-0.11,1.83-0.792,3.579-1.95,5c-0.49,0.63-1,1.57-2.08,1.43c0.545-0.775,1.01-1.602,1.39-2.47
		c0.412-0.997,0.681-2.048,0.8-3.12c0.03-0.52-0.21-1.74,0.04-2.03V43.59z M96.23,38.68c0.49,0.47,1.07,1.5,0.24,2
		c-1,1-0.75-0.17-1.46-0.22c-0.25,0-0.3,0.51-0.43,0.63c-1.17,0.74-3.22-0.05-4.16-0.69c-0.95-0.8-1.66-1.1-1.95,0.45
		c-0.227,1.186-0.328,2.393-0.3,3.6c-0.16,3-0.69,5.73-3.09,6.62c0.05-0.37,0.28-0.51,0.41-0.81c1.23-3.83,0-9.14,2.66-12.27
		c1.82-1.84,6.33-1.44,8.08,0.71V38.68z M87.36,22.53c2.68,0.65,3.63,3.25,3.66,6c-0.119,0.025-0.241,0.025-0.36,0
		c-0.23-1.57-0.66-3.45-2.57-3.57c-1.14,0-2.36,0.5-3.19-0.46c-0.84,1-2.06,0.46-3.19,0.46c-1.91,0.12-2.35,2-2.57,3.57
		c-0.119,0.025-0.241,0.025-0.36,0c0-2.72,1-5.32,3.66-6c0.823-0.128,1.664-0.067,2.46,0.18c0.797-0.241,1.639-0.296,2.46-0.16V22.53
		z M88.15,11.25c-0.14,0.44-0.66,0.5-1.12,0.14c-0.314-0.25-0.527-0.605-0.6-1c-0.12-0.54-0.22-1.08-0.33-1.62l0,0l1.38,0.9
		c0.536,0.341,0.803,0.979,0.67,1.6V11.25z M88.9,9.87C88.536,9.75,88.22,9.515,88,9.2l-0.87-1.4l0,0l1.6,0.34
		c0.595,0.129,1.056,0.602,1.17,1.2c0.02,0.48-0.42,0.72-1,0.55V9.87z M88.9,7.19l-1.51-0.65l0,0L88.9,5.9
		c0.363-0.125,0.757-0.125,1.12,0c0.56,0.19,0.8,0.65,0.52,1c-0.435,0.415-1.073,0.536-1.63,0.31L88.9,7.19z M97.48,10.15l-0.6,0.94
		h-6.32c0.288-0.313,0.552-0.647,0.79-1L97.48,10.15z"></path>
    <polygon points="99.4,58.69 99.08,57.47 70.72,57.47 70.39,58.69 0.01,58.69 0.01,59.89 169.78,59.89 169.78,58.69 "></polygon>
    <path d="M17.69,28.42c0-2.85-0.16-3.18-2.28-3.68c-0.57-0.14-0.83-0.47-0.83-0.78s0.56-0.5,1.06-0.5s1.86,0.1,3.32,0.1
		c2,0,2.88-0.13,3.84-0.13c0.4,0,0.8,0.27,0.8,0.6s-0.43,0.54-0.7,0.6c-1.92,0.51-2.05,0.88-2.12,2.59c-0.07,1.37-0.07,5-0.07,7.3
		c0,3.66,0,5.54,0,6c0.06,1.58,0.49,1.88,2.48,2.38c0.63,0.17,0.87,0.41,0.87,0.67c0,0.44-0.7,0.64-1.1,0.64s-2.72-0.13-3.85-0.13
		s-3.11,0.2-3.71,0.2c-0.43,0-0.9-0.24-0.9-0.51s0.4-0.6,0.83-0.77c1.73-0.6,2-0.9,2.09-1.57s0.23-5.63,0.23-8.38L17.69,28.42z"></path>
    <path d="M48.09,35.48c-0.45-4.35-2.75-7.61-7.41-8.08c-2.24-0.37-5.7,0.25-6.47,2.57c3.58-2.78,8.24-1.22,9.44,3.48
		c1.74,5.06-2.6,12.15-7.73,8.35c-3.91-3.39-3.69-10.44-2.31-14.73c1.941-5.578,6.574-9.793,12.31-11.2
		c-10.93,0.44-20.73,12.18-16,23c2.31,5,8.4,7.92,13.66,5.27C46.702,42.436,48.484,39.015,48.09,35.48z"></path>
    <path d="M147.6,22.64c-3.131,0.093-6.103,1.398-8.29,3.64c-1.971,2.108-3.071,4.884-3.08,7.77v0.1h-4.83v-15.2l-16.35,18.84
		l12.86,0.07v15.77l3.49-2.77V38h5.54c0.557,1.503,1.434,2.868,2.57,4c2.149,2.136,5.06,3.328,8.09,3.31
		c2.003-0.004,3.973-0.51,5.73-1.47c3.508-2.086,5.667-5.858,5.69-9.94c0.102-6.118-4.775-11.161-10.893-11.264
		C147.951,22.633,147.776,22.635,147.6,22.64z M121.18,34.08l6.52-7.53l0.07,7.6L121.18,34.08z M152.48,41.96
		c-1.117,1.02-2.588,1.566-4.1,1.52c-2.389-0.02-4.622-1.188-6-3.14c-1.434-1.954-2.205-4.316-2.2-6.74
		c-0.151-2.661,0.734-5.277,2.47-7.3c1.16-1.16,2.695-1.869,4.33-2c4,0,8,3.61,8,9.64C155.01,38.76,153.41,41.03,152.48,41.96z"></path>
	</svg>