<svg width="156pt" height="34pt" viewBox="0 0 156 34" xmlns="http://www.w3.org/2000/svg"><g id="fontsvg1720036232879" stroke-linecap="round"><path d="M 117.55 14 L 117.55 33.25 L 113.45 33.25 L 113.45 8.55 L 117 8.55 L 117.2 10.95 L 117.35 10.95 A 14.827 14.827 0 0 1 120.183 9.266 A 13.086 13.086 0 0 1 121.525 8.75 A 14.334 14.334 0 0 1 124.293 8.166 A 18.548 18.548 0 0 1 126.4 8.05 A 13.117 13.117 0 0 1 128.77 8.25 Q 130.098 8.494 131.139 9.037 A 6.357 6.357 0 0 1 132.625 10.1 A 6.514 6.514 0 0 1 134.314 12.925 Q 134.638 13.973 134.721 15.242 A 13.831 13.831 0 0 1 134.75 16.15 L 134.75 33.25 L 130.65 33.25 L 130.65 16.65 A 7.067 7.067 0 0 0 130.52 15.247 Q 130.224 13.784 129.25 12.95 A 4.322 4.322 0 0 0 127.865 12.173 Q 126.672 11.75 124.95 11.75 Q 123.15 11.75 121.275 12.325 A 16.511 16.511 0 0 0 118.477 13.483 A 19.144 19.144 0 0 0 117.55 14 Z M 35.2 29.5 L 42.5 8.55 L 47 8.55 L 37.5 33.25 L 32.8 33.25 L 23.3 8.55 L 27.85 8.55 L 35.2 29.5 Z M 19.75 28.45 L 19.75 31.9 A 8.061 8.061 0 0 1 18.818 32.32 Q 17.661 32.764 15.925 33.125 Q 13.4 33.65 10.8 33.65 A 17.631 17.631 0 0 1 7.799 33.413 Q 6.212 33.138 4.975 32.545 A 7.248 7.248 0 0 1 2.5 30.65 A 8.801 8.801 0 0 1 1.039 28.024 Q 0.142 25.584 0.02 21.936 A 35.324 35.324 0 0 1 0 20.75 A 26.929 26.929 0 0 1 0.205 17.307 Q 0.68 13.628 2.265 11.495 A 7.554 7.554 0 0 1 2.6 11.075 Q 5.2 8.05 10.9 8.05 A 18.631 18.631 0 0 1 13.609 8.233 Q 14.972 8.433 16.055 8.855 A 6.754 6.754 0 0 1 18.5 10.425 Q 20.8 12.8 20.8 18.35 Q 20.8 19.35 20.75 20.2 A 22.908 22.908 0 0 1 20.699 20.887 Q 20.644 21.5 20.55 22.25 L 4.15 22.25 Q 4.195 25.92 5.502 27.707 A 4.349 4.349 0 0 0 5.825 28.1 A 4.637 4.637 0 0 0 7.497 29.217 Q 8.946 29.81 11.148 29.847 A 17.673 17.673 0 0 0 11.45 29.85 A 25.686 25.686 0 0 0 14.644 29.643 A 30.075 30.075 0 0 0 15.95 29.45 Q 17.577 29.173 18.773 28.8 A 11.567 11.567 0 0 0 19.75 28.45 Z M 107.1 28.45 L 107.1 31.9 A 8.061 8.061 0 0 1 106.168 32.32 Q 105.011 32.764 103.275 33.125 Q 100.75 33.65 98.15 33.65 A 17.631 17.631 0 0 1 95.149 33.413 Q 93.562 33.138 92.325 32.545 A 7.248 7.248 0 0 1 89.85 30.65 A 8.801 8.801 0 0 1 88.389 28.024 Q 87.492 25.584 87.37 21.936 A 35.324 35.324 0 0 1 87.35 20.75 A 26.929 26.929 0 0 1 87.555 17.307 Q 88.03 13.628 89.615 11.495 A 7.554 7.554 0 0 1 89.95 11.075 Q 92.55 8.05 98.25 8.05 A 18.631 18.631 0 0 1 100.959 8.233 Q 102.322 8.433 103.405 8.855 A 6.754 6.754 0 0 1 105.85 10.425 Q 108.15 12.8 108.15 18.35 Q 108.15 19.35 108.1 20.2 A 22.908 22.908 0 0 1 108.049 20.887 Q 107.994 21.5 107.9 22.25 L 91.5 22.25 Q 91.545 25.92 92.852 27.707 A 4.349 4.349 0 0 0 93.175 28.1 A 4.637 4.637 0 0 0 94.847 29.217 Q 96.296 29.81 98.498 29.847 A 17.673 17.673 0 0 0 98.8 29.85 A 25.686 25.686 0 0 0 101.994 29.643 A 30.075 30.075 0 0 0 103.3 29.45 Q 104.927 29.173 106.123 28.8 A 11.567 11.567 0 0 0 107.1 28.45 Z M 155.65 29.4 L 155.65 32.85 Q 155.113 33.085 154.316 33.264 A 14.706 14.706 0 0 1 153.475 33.425 Q 152.1 33.65 150.85 33.65 A 15.958 15.958 0 0 1 148.582 33.5 Q 145.925 33.118 144.53 31.755 A 4.779 4.779 0 0 1 144.425 31.65 Q 142.667 29.823 142.515 25.576 A 23.086 23.086 0 0 1 142.5 24.75 L 142.5 12.05 L 138.8 12.05 L 138.8 8.55 L 142.55 8.55 L 143.2 2.55 L 146.6 2.55 L 146.6 8.55 L 155.4 8.55 L 155.4 12.05 L 146.6 12.05 L 146.6 24.6 A 12.929 12.929 0 0 0 146.67 25.998 Q 146.824 27.411 147.32 28.231 A 2.598 2.598 0 0 0 147.725 28.75 A 3.128 3.128 0 0 0 148.753 29.397 Q 149.695 29.778 151.14 29.839 A 13.455 13.455 0 0 0 151.7 29.85 Q 152.6 29.85 153.775 29.7 Q 154.826 29.566 155.497 29.432 A 11.39 11.39 0 0 0 155.65 29.4 Z M 77.85 9.1 L 77.85 0 L 81.95 0 L 81.95 33.25 L 78.4 33.25 L 78.1 30.95 L 78 30.95 A 9.041 9.041 0 0 1 75.262 32.686 A 10.848 10.848 0 0 1 74.475 32.975 Q 72.404 33.649 69.71 33.65 A 20.695 20.695 0 0 1 69.7 33.65 Q 66.389 33.65 64.314 32.36 A 6.462 6.462 0 0 1 62.475 30.65 A 9.038 9.038 0 0 1 61.282 28.272 Q 60.3 25.419 60.3 20.85 Q 60.3 14.6 62.539 11.56 A 7.382 7.382 0 0 1 62.95 11.05 A 7.838 7.838 0 0 1 66.048 8.96 Q 68.385 8.05 71.8 8.05 A 19.778 19.778 0 0 1 73.9 8.157 A 16.49 16.49 0 0 1 75.075 8.325 A 15.591 15.591 0 0 1 76.789 8.731 A 12.628 12.628 0 0 1 77.85 9.1 Z M 54.9 8.55 L 54.9 33.25 L 50.8 33.25 L 50.8 8.55 L 54.9 8.55 Z M 77.85 27.95 L 77.85 12.75 A 12.535 12.535 0 0 0 75.342 12.008 A 13.82 13.82 0 0 0 75.3 12 A 14.585 14.585 0 0 0 73.734 11.801 A 19.233 19.233 0 0 0 72.3 11.75 Q 67.65 11.75 66.025 13.7 A 5.29 5.29 0 0 0 65.171 15.23 Q 64.4 17.27 64.4 20.85 A 28.254 28.254 0 0 0 64.489 23.183 Q 64.757 26.394 65.825 27.875 A 4.157 4.157 0 0 0 67.625 29.259 Q 68.363 29.573 69.31 29.72 A 12.022 12.022 0 0 0 71.15 29.85 Q 73 29.85 74.7 29.375 Q 76.4 28.9 77.85 27.95 Z M 4.15 18.85 L 17 18.85 A 1.576 1.576 0 0 1 17.001 18.803 Q 17.005 18.684 17.024 18.398 A 39.907 39.907 0 0 1 17.025 18.375 A 17.7 17.7 0 0 0 17.036 18.198 Q 17.047 18.008 17.05 17.876 A 3.993 3.993 0 0 0 17.05 17.8 A 12.498 12.498 0 0 0 16.928 16.183 Q 16.662 14.366 15.823 13.366 A 3.416 3.416 0 0 0 15.6 13.125 A 4.044 4.044 0 0 0 14.225 12.264 Q 13.007 11.785 11.173 11.752 A 15.275 15.275 0 0 0 10.9 11.75 A 13.692 13.692 0 0 0 9.088 11.861 Q 7.068 12.132 5.959 13.062 A 3.717 3.717 0 0 0 5.675 13.325 A 4.399 4.399 0 0 0 4.776 14.764 Q 4.244 16.087 4.164 18.116 A 18.754 18.754 0 0 0 4.15 18.85 Z M 91.5 18.85 L 104.35 18.85 A 1.576 1.576 0 0 1 104.351 18.803 Q 104.355 18.684 104.374 18.398 A 39.907 39.907 0 0 1 104.375 18.375 A 17.7 17.7 0 0 0 104.386 18.198 Q 104.397 18.008 104.4 17.876 A 3.993 3.993 0 0 0 104.4 17.8 A 12.498 12.498 0 0 0 104.278 16.183 Q 104.012 14.366 103.173 13.366 A 3.416 3.416 0 0 0 102.95 13.125 A 4.044 4.044 0 0 0 101.575 12.264 Q 100.357 11.785 98.523 11.752 A 15.275 15.275 0 0 0 98.25 11.75 A 13.692 13.692 0 0 0 96.438 11.861 Q 94.418 12.132 93.309 13.062 A 3.717 3.717 0 0 0 93.025 13.325 A 4.399 4.399 0 0 0 92.126 14.764 Q 91.594 16.087 91.514 18.116 A 18.754 18.754 0 0 0 91.5 18.85 Z M 55.05 0 L 55.05 4.25 L 50.65 4.25 L 50.65 0 L 55.05 0 Z" vector-effect="non-scaling-stroke" fill="white"/></g></svg>